<svg width="506" height="600" viewBox="0 0 506 600" fill="none" xmlns="http://www.w3.org/2000/svg">
<path fill-rule="evenodd" clip-rule="evenodd" d="M218.463 86.5971L8.508 204.366V439.504L218.463 557.272L428.424 439.504V204.366L218.463 86.5971Z" fill="#6A92CF"/>
<path fill-rule="evenodd" clip-rule="evenodd" d="M218.463 77.4939L327.411 138.603L436.359 199.717V321.935V444.153L327.411 505.266L218.463 566.375L109.516 505.266L0.568176 444.153V321.935V199.717L109.516 138.603L218.463 77.4939ZM218.463 86.5972L8.50803 204.366V439.504L218.463 557.272L428.424 439.504V204.366L218.463 86.5972Z" fill="#FEFEFE"/>
<path fill-rule="evenodd" clip-rule="evenodd" d="M152.043 94.9994C163.897 90.1313 178.414 83.6081 188.52 78.6914C219.403 63.6733 230.682 53.1534 267.354 46.3479C263.698 40.5354 259.793 35.2681 255.388 29.9424C244.089 16.2923 233.861 16.7937 218.201 14.053C210.636 12.7289 207.69 8.48394 201.386 4.81828C191.061 -1.17919 175.381 -3.24813 168.4 8.58617C166.745 11.3902 164.267 15.7082 161.784 18.6485C156.614 24.7774 151.493 25.1474 145.106 28.5696C125.254 39.2112 130.273 84.1777 123.146 103.226C122.587 104.721 123.37 101.795 122.713 106.118C132.576 102.657 142.375 98.9718 152.043 94.9994ZM129.173 237.512C114.394 232.138 43.6166 204.755 52.1699 156.118C55.8014 135.458 69.4905 129.178 87.7409 121.511C96.0118 118.04 106.814 114.287 118.059 110.65C129.309 107.014 140.993 103.484 152.793 99.3515C164.588 95.2136 176.496 90.4721 191.329 83.8028C206.157 77.1336 223.906 68.5317 237.746 62.3589C251.581 56.1813 261.507 52.4329 268.892 49.7896C280.575 45.603 291.266 42.6724 303.626 41.1877C325.235 38.5979 347.385 50.8557 357.52 69.9191C368.853 91.2315 362.671 129.451 352.574 150.16C336.709 182.683 323.629 190.341 301.868 206.96C304.069 212.593 305.519 216.619 310.027 217.694C309.618 218.225 307.856 219.559 306.678 220.124C304.166 221.326 303.499 221.277 300.909 220.844C301.464 223.916 301.328 224.743 300.948 227.635C297.579 226.705 295.7 225.274 292.731 224.369C291.738 229.066 291.869 233.788 290.998 238.54C289.075 237.503 285.638 235.896 284.056 233.73C282.761 234.621 280.804 238.676 279.782 240.901C278.764 243.125 278.404 244.143 277.917 248.354C277.43 252.56 276.817 259.954 276.52 264.272C276.218 268.59 276.233 269.832 277.143 270.761C278.049 271.696 279.845 272.324 281.476 274.578C288.7 284.572 286.816 303.898 303.626 315.397C305.315 316.555 307.374 317.602 309.083 319.038C310.791 320.469 312.116 322.344 313.109 324.442C314.097 326.535 314.759 328.847 315.869 329.573C316.974 330.298 318.527 329.431 321.944 330.366C325.362 331.306 330.643 334.046 335.658 336.227C340.672 338.408 345.413 340.024 349.546 341.68C353.679 343.335 357.209 345.024 360.305 346.46C363.401 347.896 367.003 349.322 368.605 349.819C372.509 349.318 376.71 348.675 382.425 347.92C400.155 325.756 421.589 301.518 427.27 293.948C432.722 286.68 443.515 271.964 448.816 264.569C454.117 257.179 453.923 257.111 458.45 260.499C462.977 263.888 472.222 270.732 476.934 274.067C481.651 277.406 481.831 277.231 480.785 278.497C479.733 279.762 477.46 282.474 466.531 295.15C455.602 307.822 436.018 330.454 425.921 341.942C415.83 353.431 415.221 353.777 416.117 354.366C417.013 354.95 419.413 355.777 421.238 356.746C423.064 357.715 424.315 358.83 424.938 359.38C425.566 359.93 425.561 359.915 430.171 356.074C434.781 352.229 444.006 344.561 448.553 340.443C453.105 336.325 452.973 335.755 454.263 333.365C455.553 330.979 458.255 326.773 461.595 322.903C464.929 319.038 468.902 315.509 472.65 313.138C476.433 310.743 500.213 297.526 505.432 298.996C503.188 305.5 498.393 309.458 495.306 312.198C495.944 312.344 497.555 312.038 498.315 313.727C494.381 315.64 489.435 334.11 477.927 343.364C474.563 346.071 470.966 348.797 468.761 350.121C466.555 351.44 465.908 351.557 455.773 362.53C445.637 373.502 426.009 395.335 413.717 408.567C401.42 421.798 396.46 426.428 362.997 456.912C329.534 487.401 266.166 544.844 236.816 571.969C207.466 599.089 206.946 599.824 206.103 599.99C204.93 600.218 201.858 596.665 202.258 595.998C201.07 596.879 196.406 595.141 196.231 591.86C196.177 590.813 196.922 589.494 200.437 584.811C205.685 577.815 211.054 570.981 216.278 564.462C4.95435 438.72 216.278 564.462 4.95435 438.72C9.31614 424.296 17.7525 401.932 29.7377 393.203C31.6071 391.845 33.5738 390.998 37.1031 390.058C40.6325 389.124 45.7196 388.097 49.58 387.464C53.4404 386.831 56.0789 386.602 60.2168 384.45C64.3498 382.299 69.9821 378.234 75.9407 374.437C81.8992 370.635 88.1839 367.11 93.5826 364.35C98.9862 361.595 103.509 359.609 106.926 358.455C110.343 357.296 112.661 356.965 115.581 356.25C120.868 354.95 123.307 353.757 127.791 352.16C131.12 346.533 131.933 344.396 137.205 340.088C144.133 334.416 152.452 321.725 156.118 313.498C152.754 311.682 149.716 310.388 147.438 307.15C142.813 300.578 140.209 293.899 140.238 285.828C140.253 281.622 140.72 276.399 140.496 272.928C140.141 267.29 136.402 257.705 135.302 250.16C134.796 246.708 133.725 240.905 129.173 237.512Z" fill="#FEFEFE"/>
<path fill-rule="evenodd" clip-rule="evenodd" d="M211.512 168.283C212.096 168.283 212.67 168.308 213.225 168.361C213.347 168.756 213.41 169.184 213.41 169.627C213.41 171.779 211.887 173.522 210.008 173.522C208.128 173.522 206.61 171.779 206.61 169.627C206.61 169.393 206.624 169.16 206.663 168.936C206.868 168.877 207.077 168.824 207.286 168.77C207.15 169.048 207.067 169.359 207.067 169.685C207.067 170.81 207.978 171.72 209.102 171.72C210.222 171.72 211.132 170.81 211.132 169.685C211.132 169.155 210.928 168.668 210.592 168.308C210.894 168.293 211.2 168.283 211.512 168.283ZM389.031 397.458C389.591 396.776 390.774 395.647 391.451 395.068C392.127 394.488 392.293 394.459 395.394 396.845C398.495 399.23 404.531 404.025 407.535 406.493C410.728 409.117 410.908 407.983 408.859 410.67C408.255 411.459 407.067 412.267 406.376 412.749C405.69 413.231 405.359 413.26 402.822 411.176C400.286 409.098 395.545 404.906 392.809 402.462C390.073 400.014 389.343 399.313 388.944 398.845C388.544 398.373 388.476 398.139 389.031 397.458ZM405.081 382.294C414.842 373.648 434.246 356.503 444.113 347.847C453.981 339.192 454.312 339.026 455.938 340.545C457.564 342.059 460.485 345.258 462.086 347.02C463.683 348.787 463.961 349.118 462.607 351.075C461.259 353.032 458.28 356.615 449.819 366.039C441.358 375.469 427.411 390.74 420.352 398.427C413.299 406.118 413.133 406.23 410.621 404.273C408.114 402.316 403.265 398.29 400.286 395.774C397.307 393.262 396.207 392.254 395.71 391.675C395.214 391.095 395.326 390.944 405.081 382.294ZM413.328 358.177C414.511 357.988 415.966 358.791 417.135 359.472C418.303 360.149 419.184 360.699 419.875 361.337C420.562 361.97 421.058 362.685 421.277 363.172C421.496 363.659 421.438 363.917 415.567 368.965C409.696 374.008 398.013 383.837 392.006 389.343C387.128 393.822 381.846 400.895 377.289 405.948C369.569 414.506 354.297 431.539 333.379 454.419C312.456 477.299 285.886 506.021 265.65 527.908C245.418 549.79 231.529 564.842 223.205 573.853C214.881 582.868 212.12 585.848 209.599 588.579C207.077 591.315 204.789 593.807 203.937 594.469C203.08 595.131 203.66 593.963 207.009 590.098C210.358 586.232 216.477 579.67 234.09 559.852C251.703 540.034 280.814 506.956 307.194 477.105C333.569 447.254 357.223 420.625 373.95 401.771C390.681 382.917 400.496 371.837 405.86 365.699C411.225 359.565 412.14 358.372 413.328 358.177ZM230.093 559.769C258.761 527.601 315.64 462.744 344.104 430.342C372.572 397.94 372.631 397.993 372.319 397.799C367.485 394.693 362.052 390.365 357.199 387.707C356.809 387.493 356.887 387.644 334.246 417.047C311.6 446.45 266.229 505.111 241.548 537.055C216.862 569.004 212.865 574.242 210.042 578C207.213 581.763 205.563 584.051 204.278 585.775C202.998 587.498 202.087 588.657 201.523 589.416C200.958 590.171 200.739 590.531 200.856 590.974C200.972 591.412 201.425 591.938 230.093 559.769ZM358.937 385.964C374.549 395.832 358.937 385.964 374.899 396.051C375.055 396.148 375.089 396.007 386.368 383.146C397.653 370.284 420.197 344.664 431.437 331.88C442.677 319.096 442.609 319.155 438.91 316.624C435.205 314.097 427.874 308.981 424.32 306.42C420.761 303.855 420.985 303.84 410.597 317.412C400.208 330.984 379.212 358.138 368.824 371.832C358.44 385.521 358.669 385.755 358.937 385.964ZM441.105 314.618C444.445 316.935 444.445 317.018 449.03 311.585C453.621 306.157 462.802 295.214 467.967 289.065C473.137 282.917 474.296 281.569 475.259 280.507C476.223 279.446 476.997 278.672 477.246 278.122C477.494 277.572 477.216 277.241 476.778 277.338C476.335 277.436 475.727 277.956 475.191 278.687C474.651 279.417 474.184 280.356 473.58 281.169C472.971 281.982 472.227 282.669 471.677 282.893C471.126 283.112 470.766 282.863 470.727 282.381C470.683 281.9 470.961 281.184 471.443 280.439C471.925 279.694 472.611 278.92 473.176 278.151C473.746 277.377 474.184 276.608 474.252 276.165C474.32 275.727 474.018 274.889 473.77 274.875C473.731 274.875 462.194 288.754 458.723 291.602C457.647 292.483 456.79 293.009 456.42 292.867C456.045 292.731 456.157 291.933 457.067 290.526C460.602 285.069 464.418 280.858 467.787 274.787C468.342 273.794 468.673 273.079 468.96 272.528C469.252 271.974 469.501 271.589 469.262 271.151C469.048 270.742 467.13 268.897 466.648 269.729C464.516 273.41 456.074 280.751 453.154 283.564C452.048 284.63 451.138 285.648 450.408 286.145C449.678 286.641 449.128 286.612 450.067 284.947C451.002 283.277 453.431 279.972 455.344 277.324C460.451 270.27 459.711 270.81 461.59 265.635C461.556 264.876 460.207 264.024 458.689 263.97C456.59 267.441 454.312 270.781 451.956 274.086C450.919 275.532 449.872 276.881 448.894 278.137C447.915 279.392 447.005 280.551 446.163 281.788C445.326 283.029 444.552 284.353 443.714 285.482C442.872 286.612 441.962 287.551 441.285 288.199C440.613 288.846 440.17 289.202 439.869 289.119C439.562 289.036 439.396 288.515 439.659 287.824C439.922 287.138 440.613 286.281 441.699 284.835C442.789 283.389 444.279 281.349 445.598 279.334C446.922 277.324 448.081 275.337 448.938 273.59C449.79 271.837 450.34 270.323 451.153 268.916C451.966 267.509 453.042 266.215 453.635 265.333C454.151 264.564 455.325 262.554 454.594 261.974C454.015 261.517 439.338 282.065 438.243 283.608C434.713 288.569 430.853 293.943 428.448 297.302C426.043 300.666 424.773 302.068 424.554 303.251C429.986 307.121 435.604 310.796 441.105 314.618ZM379.65 352.117C353.475 353.986 349.546 368.522 329.611 377.659C320.567 381.802 304.551 378.954 294.493 378.594C275.8 377.932 255.441 383.073 241.295 396.071C233.91 402.857 224.398 415.592 218.911 424.189C197.399 457.89 189.114 498.013 183.233 537.031C219.646 560.1 183.233 537.031 219.646 560.1C297.307 459.691 219.646 560.1 297.307 459.691C287.697 452.161 287.05 437.912 293.062 427.991C296.421 422.441 303.29 413.756 309.102 410.626C315.684 407.082 322.446 405.87 329.684 408.08C332.187 408.849 333.55 409.716 334.324 410.378C334.514 410.538 334.324 410.378 334.898 410.68C351.026 391.198 364.642 372.426 379.65 352.117ZM173.21 383.968C170.401 375.177 169.739 370.82 169.325 366.468C168.58 358.625 168.692 351.873 169.023 344.167C169.5 332.776 163.532 327.251 166.39 318.585C166.005 318.172 166.112 318.196 164.895 317.125C164.671 317.256 162.758 318.532 162.583 318.863C162.904 322.971 159.443 335.521 157.14 339.538C152.71 347.263 141.733 357.019 147.881 367.514C151.722 374.077 159.959 375.508 161.77 380.386C162.13 381.349 162.271 382.508 161.994 385.429C159.462 411.799 169.977 399.615 185.555 419.686C183.72 407.218 177.177 396.377 173.21 383.968ZM171.214 529.164C173.142 512.354 174.772 500.257 176.34 486.515C179.582 458.031 184.051 427.051 194.848 400.651C197.482 394.216 200.232 390.516 202.141 385.711C211.166 362.958 216.506 368.264 225.804 354.921C227.197 352.925 227.8 351.104 229.261 346.528C234.655 329.636 237.736 313.002 243.101 296.1C243.724 294.133 244.561 292.488 245.252 290.594C219.914 313.717 194.697 321.584 160.008 315.192C156.021 321.375 152.443 329.237 149.419 333.506C146.124 338.16 144.274 339.932 140.131 343.841C126.559 356.654 124.251 377.893 122.767 395.496C121.506 410.441 107.5 436.583 112.072 447.677C113.853 446.48 119.963 438.418 121.457 436.057C127.411 426.662 126.311 412.861 127.756 401.907C128.414 396.898 131.821 380.079 136.758 377.913C140.238 376.379 149.361 381.525 151.299 384.567C155.636 391.392 152.603 399.61 152.228 406.79C152.15 408.231 152.384 408.961 153.124 409.993C157.948 416.765 171.316 427.309 173.886 433.92C174.339 435.093 174.563 436.14 174.699 437.396C174.836 438.652 174.889 440.112 174.85 441.913C174.807 443.719 174.67 445.871 173.487 450.681C167.782 473.828 158.562 497.862 159.243 522.047C171.214 529.164 159.243 522.047 171.214 529.164ZM307.53 326.102C310.173 328.628 308.625 335.594 308.216 338.851C306.41 353.363 301.299 363.031 299.916 374.485C297.497 374.393 295.642 374.792 293.286 374.154C297.054 354.249 305.008 348.12 304.088 323.156C305.037 323.931 305.544 324.213 307.53 326.102ZM219.968 416.142C202.73 377.314 227.06 384.3 243.841 391.48C245.252 390.389 246.601 389.216 247.813 388.092C212.554 368.021 198.339 387.381 212.485 419.106C213.23 420.771 213.581 421.667 214.686 423.054C219.968 416.142 215.64 421.813 219.968 416.142ZM45.5979 440.302C48.9715 422.694 49.7991 412.612 62.0277 399.454C68.4682 392.522 98.8547 372.324 109.852 377.07C111.064 377.596 111.96 378.507 112.388 379.743C117.246 393.89 93.5728 442.458 106.673 461.361C112.738 457.126 123.916 445.671 127.601 439.64C129.373 436.748 135.691 423.624 139.425 423.984C139.776 424.018 147.224 427.032 147.531 427.319C148.052 427.815 148.495 428.696 148.553 429.417C149.293 439.08 151.522 440.55 155.305 448.763C157.987 454.604 142.254 491.947 143.437 514.404C43.7529 454.848 143.437 514.404 43.7529 454.848C43.9817 451.406 44.5124 445.973 45.5979 440.302ZM35.5405 449.055C37.366 442.166 51.3569 405.159 39.2597 401.343C26.8607 397.424 17.6357 426.993 14.7538 437.313C22.4843 441.879 34.3673 448.436 35.5405 449.055ZM277.893 223.784C278.224 225.99 277.153 231.447 276.447 235.526C275.746 239.606 275.415 242.307 275.001 246.689C274.587 251.075 274.091 257.136 273.706 261.741C273.317 266.341 273.044 269.486 273.044 274.008C273.044 278.526 273.317 284.426 273.375 288.311C273.59 303.621 267.412 308.961 258.382 321.526C250.875 331.963 245.316 335.132 237.488 343.549C234.922 346.309 236.548 344.639 235.307 346.085C239.45 339.372 242.478 333.973 243.826 325.995C246.377 310.899 241.056 317.85 250.583 286.461C253.144 282.936 252.228 284.368 253.144 282.936C254.794 280.347 257.496 276.817 259.316 273.867C270.528 255.695 270.42 239.834 272.567 223.94C275.731 224.305 277.421 220.615 277.893 223.784ZM174.792 323.098C176.243 322.344 177.615 321.949 179.047 321.238C181.116 329.801 187.23 339.518 192.414 340.944C199.936 343.013 208.44 327.148 212.305 322.558C211.614 344.372 203.051 358.874 204.365 370.576C204.458 371.409 203.937 372.066 203.387 372.285C202.837 372.504 202.039 372.285 200.534 370.411C195.048 363.566 191.295 353.967 188.242 345.701C179.358 337.727 178.545 334.017 174.792 323.098ZM155.5 248.558C156.001 247.896 156.673 246.543 157.583 246.173C158.542 245.778 164.715 247.137 165.951 247.521C176.135 250.69 183.657 249.264 193.782 246.752C198.582 245.554 202.813 243.914 207.749 243.077C208.309 246.845 209.112 250.953 209.131 254.711C209.146 257.15 208.786 259.097 208.002 261.527C207.213 263.951 206.006 266.852 205.115 268.78C204.229 270.703 203.664 271.657 203.178 271.696C202.696 271.74 202.297 270.868 201.6 269.788C200.904 268.707 199.911 267.407 198.894 266.21C197.871 265.012 196.825 263.907 195.88 262.992C194.936 262.077 194.099 261.346 193.49 260.655C192.882 259.969 192.512 259.321 192.38 258.664C192.249 258.012 192.361 257.35 192.663 256.921C192.964 256.493 193.461 256.303 194.055 255.972C194.649 255.641 195.335 255.169 195.515 254.619C195.695 254.069 195.364 253.436 194.819 253.11C194.274 252.784 193.51 252.764 192.38 253.149C191.251 253.533 189.751 254.327 186.548 254.984C183.345 255.641 178.438 256.162 175.327 256.405C172.212 256.644 170.893 256.6 170.109 256.736C169.32 256.873 169.072 257.194 168.809 257.734C168.546 258.27 168.269 259.029 167.465 260.261C165.095 263.873 162.13 268.191 159.594 271.647C158.961 272.504 158.382 273.268 157.793 273.103C155.602 272.49 152.993 262.374 152.949 260.178C152.89 256.941 153.475 251.24 155.5 248.558ZM167.641 234.392C168.21 236.237 167.923 241.095 168.483 242.001C171.433 246.776 179.086 242.673 179.124 240.336C179.144 239.09 176.583 232.128 177.664 231.938C179.894 231.554 180.999 237.717 182.445 239.494C185.005 242.643 190.01 242.512 193.802 242.565C196.528 242.604 200.573 243.033 202.934 241.782C203.723 241.368 204.745 240.789 205.529 240.263C206.313 239.742 206.868 239.275 207.252 238.929C207.637 238.583 207.861 238.364 208.328 238.389C208.795 238.418 209.511 238.695 210.105 239.133C210.699 239.576 211.166 240.18 211.648 240.857C212.13 241.533 212.627 242.278 213.094 242.882C213.566 243.49 214.004 243.958 214.433 244.537C214.861 245.116 215.275 245.803 215.523 246.825C215.771 247.847 215.854 249.196 216.049 250.272C216.244 251.352 216.555 252.16 216.458 252.74C216.36 253.314 215.859 253.67 215.538 253.762C214.764 253.986 214.438 250.977 214.35 250.461C214.199 249.556 214.116 248.811 213.839 248.217C213.566 247.623 212.753 246.942 212.476 246.806C212.636 249.283 212.758 251.766 212.446 254.239C211.4 262.637 210.84 264.277 206.907 271.701C206.537 272.407 206.313 272.762 205.724 273.356C205.13 273.95 204.166 274.778 203.226 275.133C202.292 275.493 201.381 275.381 200.695 274.593C200.009 273.804 199.546 272.334 198.957 271.565C198.363 270.791 197.638 270.718 197.234 270.391C196.825 270.07 196.737 269.496 196.27 268.984C195.798 268.478 194.951 268.03 194.308 267.806C193.665 267.582 193.222 267.583 192.838 267.359C192.448 267.14 192.117 266.697 191.611 265.966C191.1 265.236 190.409 264.219 189.761 263.308C189.114 262.398 188.51 261.6 188.194 260.801C187.872 259.998 187.848 259.2 188.145 258.659C188.447 258.119 189.075 257.837 189.698 257.33C190.321 256.824 190.939 256.094 190.608 255.826C190.277 255.553 188.997 255.748 188.111 256.23C186.933 256.863 184.625 259.623 184.168 260.967C182.839 264.876 184.844 266.731 184.757 269.403C184.732 270.143 184.289 270.722 183.866 270.542C183.442 270.357 183.038 269.413 182.79 268.585C182.542 267.758 182.449 267.052 182.391 266.2C182.333 265.348 182.308 264.355 182.264 263.43C182.225 262.51 182.167 261.653 182.075 260.757C181.982 259.857 181.851 258.912 181.495 258.445C181.135 257.973 180.551 257.983 180.215 258.095C179.879 258.211 179.796 258.431 179.704 259.107C179.606 259.779 179.494 260.908 179.436 261.736C179.309 263.488 179.529 263.927 178.828 264.91C178.263 264.813 178.063 264.74 177.854 264.37C177.649 263.995 177.649 263.308 177.649 262.495C177.649 258.908 177.547 260.845 176.686 259.599C176.213 259.891 175.527 260.719 175.099 261.595C174.67 262.476 174.505 263.411 174.3 264.238C174.164 264.803 173.317 268.352 173.137 268.512C171.603 267.938 172.066 267.198 172.368 265.582C172.548 264.632 172.742 263.503 172.767 262.427C172.83 260.003 172.596 259.857 171.954 257.949C171.54 258.197 170.79 259.497 169.861 260.777C167.237 264.399 164.9 268.157 161.974 271.555C160.689 273.044 159.745 275.449 158.756 276.136C157.739 276.345 155.266 275.926 154.356 275.483C153.762 275.196 152.384 270.158 152.092 269.174C151.299 266.502 150.559 265.368 149.502 262.958C149.04 261.916 148.782 260.869 148.986 259.273C149.186 257.671 149.858 255.515 150.369 253.928C150.885 252.336 151.24 251.318 151.352 250.559C151.42 250.092 151.6 249.205 151.42 249.001C151.303 248.87 148.475 250.096 148.168 250.184C147.409 250.398 147.024 250.252 146.971 249.868C146.912 249.478 147.19 248.855 147.876 248.169C148.568 247.487 149.668 246.742 150.787 246.002C151.907 245.262 153.046 244.527 153.874 243.821C154.701 243.12 155.217 242.449 155.709 242.059C156.201 241.67 156.673 241.563 157.155 241.616C157.637 241.67 158.133 241.889 159.199 242.108C160.261 242.327 161.896 242.536 163.04 242.497C164.184 242.453 164.837 242.161 165.275 241.09C166.088 239.094 165.912 235.964 166.852 234.251C167.11 233.779 167.407 233.637 167.641 234.392ZM152.924 212.193C149.824 214.759 147.273 223.804 154.726 223.59C153.27 222.241 152.038 218.196 152.924 212.193ZM138.009 248.368C138.977 243.705 138.135 243.189 138.34 239.216C138.525 235.56 139.849 232.625 143.052 230.755C147.448 228.19 146.615 228.94 149.775 225.05C145.286 222.723 146.922 215.811 149.502 212.646C152.068 209.497 152.559 209 153.557 204.818C154.546 200.656 155.281 196.324 156.269 192.069C154.901 193.427 155.378 193.247 153.995 194.561C151.795 196.659 144.873 201.133 141.674 201.786C139.966 202.136 136.728 202.628 135.774 200.792C136.188 200.077 136.874 199.186 137.274 198.704C138.169 199.186 138.476 199.663 139.552 199.58C140.628 199.498 142.224 198.889 143.519 198.173C144.819 197.458 145.807 196.63 146.469 195.861C147.131 195.087 147.462 194.371 148.056 193.627C148.65 192.882 148.056 193.627 149.147 191.947C147.287 192.278 147.214 192.22 145.7 192.483C143.412 192.877 142.536 193.013 140.491 192.307C140.564 191.782 140.783 190.954 141.791 189.679C143.057 189.722 148.46 188.866 149.546 188.554C151.157 188.087 152.121 187.313 153.046 186.651C155.475 184.913 157.491 183.399 159.316 180.945C160.65 179.154 161.848 177.533 161.872 175.099C159.078 169.695 150.953 162.675 145.009 164.959C138.719 167.378 134.543 170.722 133.019 180.838C132.712 182.893 134.221 185.341 134.922 187.288C135.623 189.241 135.146 189.552 134.221 191.227C133.16 189.927 131.948 188.462 131.145 187.011C130.707 186.213 130.648 185.716 130.624 186.237C130.595 186.763 130.595 188.306 130.317 190.015C128.579 200.807 119.364 213.561 125.77 226.759C127.177 229.65 129.879 232.576 131.89 234.806C133.9 237.04 135.224 238.583 135.886 239.907C136.694 241.519 137.132 245.798 138.009 248.368ZM153.728 173.828C154.39 174.232 158.508 176.501 159.17 178.789C159.316 179.261 159.092 179.801 158.508 180.205C152.886 184.11 139.464 187.313 134.499 180.858C136.923 172.762 146.367 169.33 153.728 173.828ZM223.448 181.194C225.731 177.844 228.102 174.739 228.716 171.613C230.195 172.791 234.397 172.46 235.219 172.339C234.036 177.129 231.505 180.707 230.804 182.026C230.78 181.792 229.923 179.3 228.847 179.095C228.063 179.368 225.96 182.177 223.448 181.194ZM201.079 172.874C201.187 172.514 201.63 171.857 202.112 171.394C202.652 170.878 203.397 170.386 203.699 170.182C205.324 177.883 216.565 176.481 216.219 168.892C218.205 169.354 219.904 170.571 220.143 170.732C215.324 177.82 206.804 179.811 201.079 172.874ZM197.73 173.127C197.891 172.514 198.538 171.331 199.57 170.294C200.607 169.262 202.024 168.381 203.187 167.772C205.602 166.516 208.012 166.273 210.694 166.19C216.579 166 219.525 168.726 224.646 170.43C224.67 170.498 224.68 170.571 224.675 170.654C224.597 172.144 221.155 174.028 219.826 174.85C219.033 175.342 217.918 176.029 216.876 176.588C211.663 179.383 206.546 178.394 201.688 175.542C200.783 175.011 199.901 174.539 199.434 174.281C198.816 173.935 198.879 173.906 198.173 173.818C197.906 173.784 197.575 173.741 197.73 173.127ZM199.624 158.114C201.226 156.926 202.808 155.948 204.064 155.432C205.32 154.916 206.24 154.857 206.911 154.998C209.453 155.524 208.703 155.656 211.546 155.023C213.741 154.536 215.645 154.497 217.772 155.349C218.785 155.758 219.607 156.332 220.416 157.009C221.224 157.686 222.007 158.455 222.64 159.195C223.278 159.93 223.76 160.636 224.261 161.298C225.103 162.408 225.814 163.342 227.231 163.654C229.173 164.077 230.366 164.048 232.269 163.659C230.536 161.643 230.463 160.845 229.266 158.601C224.845 150.325 217.261 142.892 207.574 147.146C206.834 147.472 206.215 147.789 205.553 148.266C204.891 148.738 204.19 149.376 203.664 150.062C203.139 150.754 202.798 151.498 202.253 152.229C201.707 152.959 200.963 153.674 200.213 154.19C199.458 154.706 198.704 155.023 198.032 155.451C197.365 155.88 196.786 156.415 196.309 156.99C195.837 157.559 195.462 158.168 195.16 159.083C194.858 159.998 194.634 161.522 194.585 162.072C195.9 161.04 197 160.061 199.624 158.114ZM180.122 162.826C179.757 168.006 178.969 170.708 180.429 175.644C184.139 173.001 187.089 175.449 190.048 178.37C198.865 187.074 206.746 195.141 220.849 190.336C221.657 190.058 223.181 189.45 223.911 188.642C224.033 188.101 224.242 187.712 224.232 187.181C220.396 188.106 215.353 189.357 211.536 188.369C214.9 187.532 220.158 185.687 222.484 183.579C222.251 183.301 221.428 182.951 220.941 182.858C217.913 183.779 209.428 185.171 198.563 178.453C197.808 177.986 197.005 177.435 196.44 176.91C193.904 174.558 194.887 171.224 196.606 168.795C199.346 164.92 202.652 160.777 207.647 160.095C209.555 159.837 211.653 160.1 213.42 160.869C217.753 162.744 220.669 166.37 224.49 167.938C227.596 169.213 229.694 168.853 232.566 167.276C234.45 166.239 235.399 165.582 236.543 164.774C236.164 164.258 235.044 162.88 234.178 161.473C230.619 155.719 228.677 152.613 224.047 147.21C222.806 145.764 221.871 145.072 220.644 144.41C219.418 143.748 217.899 143.115 216.205 142.702C214.511 142.288 212.636 142.098 211.132 142.03C209.633 141.957 208.503 142.015 206.819 142.497C205.139 142.979 202.905 143.89 200.948 145.019C198.991 146.148 197.312 147.502 195.9 148.631C194.483 149.76 193.339 150.671 192.098 151.649C190.861 152.628 189.523 153.674 188.281 154.75C182.78 159.501 183.681 159.214 180.122 162.826ZM145.559 159.779C144.323 158.012 142.035 157.744 139.975 157.617C139.328 157.574 138.476 157.617 137.931 157.691C133.773 158.27 126.929 166.536 126.33 171.453C126.033 173.891 125.916 176.939 127.24 179.095C127.518 179.543 128.594 180.463 128.842 180.629C129.796 170.377 135.278 162.369 145.559 159.779ZM279.013 234.986C278.672 238.564 278.672 239.075 279.363 237.804C280.687 235.366 282.065 230.945 284.26 229.441C285.312 229.456 287.089 233.243 289.016 233.696C289.752 232.235 289.829 227.591 289.849 225.771C289.873 223.911 289.98 223.492 290.487 221.779C291.889 222.129 292.862 222.533 294.191 223.142C295.214 223.609 296.533 224.218 297.321 224.617C298.105 225.016 298.354 225.206 298.242 224.422C297.75 220.898 297.214 219.905 297.297 215.991C299.809 217.271 300.651 218.327 303.543 218.43C303.158 217.544 302.691 217.023 301.883 215.246C299.03 208.951 295.316 201.513 295.223 190.789C294.123 192.079 293.456 194.362 292.512 199.118C292.152 200.924 291.655 202.91 291.144 204.643C290.638 206.381 290.112 207.871 289.503 209.044C288.9 210.212 288.208 211.069 287.016 212.612C285.015 215.207 282.819 217.69 280.833 219.978C280.264 223.896 279.509 229.723 279.013 234.986ZM294.605 164.433C294.688 165.027 294.659 165.742 294.659 166.322C294.659 166.901 294.688 167.344 294.824 167.69C294.96 168.03 295.209 168.279 295.501 168.376C295.788 168.473 296.119 168.42 296.338 168.142C296.562 167.865 296.669 167.368 296.796 166.448C296.917 165.523 297.059 164.175 297.044 163.016C297.029 161.858 296.864 160.894 296.547 160.022C296.231 159.156 295.846 158.289 295.291 157.876C290.365 154.176 283.019 167.539 281.374 171.53C280.794 172.937 280.434 173.794 280.079 174.481C279.718 175.172 279.358 175.693 279.1 176.038C278.837 176.384 278.672 176.549 278.37 176.895C278.063 177.241 277.625 177.762 277.294 178.273C276.963 178.784 276.744 179.276 276.52 179.431C276.301 179.582 276.082 179.388 275.848 179.441C275.61 179.499 275.362 179.801 275.24 180.312C275.113 180.824 275.113 181.539 275.089 182.464C275.06 183.384 275.006 184.514 275.113 185.19C275.225 185.867 275.503 186.086 275.766 186.183C276.024 186.281 276.272 186.252 276.515 186.193C276.754 186.135 276.987 186.047 277.085 185.551C277.182 185.054 277.143 184.149 277.275 183.521C277.401 182.888 277.708 182.532 278.063 182.269C278.424 182.007 278.837 181.841 279.168 181.622C279.499 181.403 279.864 181.033 279.986 180.897C280.862 180.643 281.486 180.77 281.919 181.262C282.318 181.719 282.06 183.165 282.255 183.525C282.449 183.881 282.503 184.183 282.352 184.888C282.201 185.589 281.841 186.695 281.442 187.522C281.043 188.345 280.6 188.9 280.244 189.45C279.884 190 279.606 190.55 279.441 191.115C279.275 191.679 279.222 192.264 279.086 192.838C278.949 193.417 278.725 193.997 278.604 194.561C278.477 195.126 278.453 195.681 278.56 196.051C278.672 196.421 278.92 196.616 279.251 196.562C279.582 196.504 279.996 196.202 280.351 195.817C280.712 195.433 281.013 194.961 281.315 194.522C282.897 192.225 284.119 192.147 284.888 189.216C285.122 188.32 285.37 187.357 285.701 186.875C287.945 183.598 286.587 184.183 288.277 181.125C288.569 180.6 288.788 180.103 289.051 179.553C289.313 179.003 289.615 178.394 289.766 177.805C289.917 177.212 289.917 176.632 289.834 176.097C289.752 175.556 289.586 175.06 289.382 174.578C289.172 174.096 288.924 173.629 288.637 173.186C288.345 172.747 288.014 172.334 287.576 172.105C287.137 171.881 286.592 171.842 286.125 171.652C285.657 171.457 285.263 171.112 285 170.839C284.737 170.567 284.596 170.377 284.888 169.783C285.176 169.189 285.891 168.196 286.539 167.164C287.186 166.132 287.765 165.056 288.32 164.277C288.875 163.498 289.406 163.016 289.971 162.593C290.535 162.174 291.139 161.814 291.631 161.755C292.122 161.692 292.507 161.926 292.906 162.169C293.31 162.408 293.719 162.656 294.026 163.016C294.328 163.372 294.522 163.844 294.605 164.433ZM258.114 115.952C258.109 115.956 256.639 117.928 256.439 118.225C257.009 123.439 261.195 133.073 264.184 137.576C265.358 139.338 266.599 140.579 267.66 141.417C268.721 142.259 269.603 142.702 270.304 143.086C271.009 143.471 271.633 143.734 271.92 144.26C272.411 145.18 272.601 145.851 275.24 147C275.191 146.353 275.259 146.207 275.571 145.871C273.57 143.914 273.288 142.225 273.268 140.414C265.348 136.305 258.966 119.028 258.114 115.952ZM126.569 149.132C129.412 111.517 214.52 95.199 244.366 110.29C246.844 126.35 248.908 139.401 256.727 154.254C258.085 156.843 259.151 158.207 260.061 159.643C260.971 161.074 261.721 162.573 262.072 166.716C262.422 170.854 262.364 177.635 262.339 182.211C262.31 186.787 262.31 189.158 262.008 192.668C261.707 196.173 261.098 200.817 260.251 205.378C259.399 209.94 258.304 214.413 257.535 217.3C256.653 220.581 256.016 220.971 255.383 222.421C253.022 221.063 252.589 218.225 250.753 217.957C249.089 219.096 248.913 221.448 248.475 223.283C248.086 224.88 247.589 226.812 247.258 228.356C246.932 229.899 246.645 231.744 246.479 232.211C245.545 230.843 243.914 229.704 242.069 229.115C239.528 237.06 239.24 245.433 235.443 252.199C232.445 250.593 232.985 249.279 230.794 246.825C229.592 245.472 227.927 244.298 226.734 243.106C225.542 241.918 224.821 240.701 224.325 239.932C223.833 239.158 223.555 238.827 223.112 237.532C222.674 236.237 222.066 233.978 221.136 231.773C219.773 228.536 217.607 224.675 214.438 222.923C209.988 220.464 203.343 216.438 200.169 215.874C199.609 211.77 196.645 208.421 193.923 206.22C191.884 204.57 189.946 205.091 187.775 205.846C191.051 206.644 193.948 208.114 195.369 214.671C195.715 216.283 195.832 218.303 195.642 219.155C193.938 219.72 189.946 220.094 188.403 219.145C188.223 219.033 188.062 218.872 187.902 218.639C187.42 217.938 186.909 216.56 185.545 215.499C184.182 214.433 181.963 213.693 179.976 214.024C177.99 214.35 176.243 215.757 174.918 216.867C173.594 217.977 172.699 218.79 172.864 219.481C173.03 220.167 174.256 220.732 175.469 220.883C180.332 221.492 182.055 221.102 186.49 220.674C187.488 220.576 188.432 221.102 189.177 221.448C191.937 222.723 193.086 222.256 195.885 221.501C201.44 225.074 208.834 227.796 214.954 231.306C216.828 232.377 217.821 233.039 218.648 233.701C219.476 234.363 220.138 235.025 220.63 235.77C221.121 236.514 221.448 237.337 221.56 238.442C221.667 239.542 221.564 240.925 221.652 242.215C221.852 245.214 222.377 245.817 223.663 248.227C224.169 247.224 224.096 245.394 224.071 244.216C225.284 244.834 228.881 248.582 229.772 250.9C230.303 250.359 230.668 250.33 231.14 250.924C231.617 251.513 232.255 253.149 232.737 254.366C233.219 255.583 233.316 255.773 233.861 256.941C234.771 255.442 235.648 255.768 236.495 257.734C238.788 257.355 237.098 254.005 239.654 255.519C240.253 254.395 240.482 253.509 241.197 250.637C242.327 246.09 243.393 241.733 244.756 237.264C245.846 238.919 247.122 240.862 249.605 240.72C251.615 234.869 251.883 229.582 253.611 223.828C255.417 227.085 255.305 228.341 258.484 229.865C260.976 224.481 261.955 219.053 262.967 213.206C263.907 207.798 264.506 202.73 264.89 194.819C265.387 184.708 264.978 174.223 265.893 164.262C266.171 163.79 266.726 163.172 265.353 160.173C263.98 157.174 260.684 151.786 258.615 148.042C253.397 138.593 249.731 122.606 248.631 111.6C249.059 111.663 255.51 116.039 260.431 115.124C261.049 116.794 263.021 120.674 263.907 122.616C264.793 124.549 265.786 126.364 266.205 127.606C266.628 128.847 266.482 129.509 266.808 129.821C266.842 129.86 269.082 130.235 272.056 132.026C272.212 131.413 272.022 130.171 271.389 128.988C270.756 127.801 269.676 126.671 268.775 124.919C266.862 121.19 267.242 120.031 266.867 116.687C267.665 116.799 269.642 118.098 270.883 118.868C272.124 119.642 273.005 120.192 274.213 120.854C275.425 121.516 276.958 122.29 278.253 122.898C279.548 123.502 280.604 123.94 281.875 124.578C283.15 125.211 284.635 126.033 286.101 127.109C287.561 128.185 288.992 129.509 290.039 130.42C294.23 134.056 298.611 137.795 303.309 140.677C304.166 141.197 304.74 141.64 305.135 142.191C305.534 142.741 305.753 143.403 305.587 144.036C305.422 144.668 304.872 145.277 304.648 146.104C304.429 146.927 304.541 147.979 304.896 148.913C305.256 149.853 305.86 150.676 306.386 151.396C307.213 152.525 309.326 155.081 310.232 156.055C307.535 157.282 306.654 159.409 306.25 162.091C305.354 168.006 305.266 166.57 303.523 169.632C303.83 168.167 303.63 162.49 303.387 161.161C302.92 158.606 303.027 158.095 301.966 155.281C299.605 149.006 292.375 148.762 287.459 151.81C285.726 148.461 285.005 147.268 284.616 146.557C283.589 144.668 282.376 142.96 281.671 141.178C280.96 139.391 280.755 137.532 280.351 135.604C279.942 133.671 279.339 131.666 279.037 130.278C278.74 128.896 278.745 128.132 278.492 127.635C278.234 127.143 277.718 126.924 277.421 127.45C277.129 127.971 277.051 129.241 277.435 131.525C277.82 133.813 278.667 137.118 279.28 139.43C279.899 141.748 280.283 143.072 280.502 144.337C280.721 145.608 280.78 146.82 281.32 148.5C282.07 150.822 282.907 152.973 283.555 154.921C282.854 156.05 283.253 155.091 282.191 156.717C280.312 156.069 278.978 155.957 275.108 154.546C273.541 153.976 271.535 152.803 270.055 151.854C266.949 149.863 267.173 149.386 264.954 146.961C264.423 146.791 264.593 147.049 263.819 146.825C263.819 147.375 264.389 148.612 265.031 149.756C267.714 154.521 274.407 159.696 276.097 163.211C276.759 164.589 276.647 166.151 276.588 167.373C276.535 168.595 276.535 169.476 276.812 170.143C277.095 170.81 277.654 171.258 278.204 170.761C278.759 170.27 279.3 168.824 280.098 167.159C280.897 165.489 281.953 163.595 282.922 161.916C283.886 160.237 284.757 158.761 285.813 157.384C286.87 156.001 288.106 154.711 289.075 153.884C290.969 152.263 294.293 151.338 296.698 152.316C297.502 152.642 298.183 153.231 298.796 153.884C300.749 155.957 300.934 157.622 301.065 160.407C301.177 162.753 301.177 166.39 300.826 169.476C300.476 172.567 299.775 175.104 298.646 177.689C297.516 180.278 295.963 182.907 294.921 184.557C293.88 186.203 293.354 186.865 292.887 187.678C292.419 188.491 292.006 189.455 291.3 191.115C289.294 195.842 288.953 198.354 287.78 203.1C287.249 205.237 286.339 207.773 285.312 209.988C284.285 212.208 283.136 214.107 281.836 215.645C280.531 217.178 279.076 218.357 277.601 219.291C276.131 220.231 274.641 220.937 273.76 220.698C272.874 220.464 272.601 219.296 272.631 217.811C272.66 216.331 272.991 214.54 273.585 212.34C274.179 210.144 275.026 207.54 275.561 205.821C276.097 204.103 276.316 203.275 276.379 202.808C276.437 202.345 276.345 202.248 275.878 202.331C275.41 202.414 274.563 202.676 273.896 203.913C273.224 205.145 272.728 207.35 272.012 209.584C271.297 211.814 270.357 214.077 269.642 216.531C267.329 224.442 267.831 238.608 265.956 247.614C265.294 250.797 264.296 254.322 263.06 257.846C261.819 261.366 260.329 264.881 258.62 267.724C256.298 271.579 255.042 273.025 251.493 275.235C250.972 274.52 250.291 272.29 250.32 270.557C250.369 267.456 251.824 265.265 251.318 262.374C248.792 263.81 249.011 263.605 248.767 266.843C248.67 268.137 248.543 269.442 248.495 271.068C248.446 272.694 248.48 274.641 248.173 276.462C247.871 278.278 247.234 279.972 245.978 281.534C243.3 284.869 239.732 286.948 237.488 288.389C235.808 279.874 239.82 268.804 239.688 268.303C237.303 270.401 237.391 271.097 236.485 274.417C236.071 275.931 235.959 276.647 235.867 277.952C235.774 279.256 235.706 281.155 235.511 283.082C235.317 285.01 235.005 286.977 234.494 288.549C233.983 290.122 233.272 291.3 232.367 292.127C230.867 293.495 229.626 293.826 228.161 294.537C226.885 292.161 230.176 284.879 227.25 283.433C226.17 287.77 224.909 289.124 221.574 292.278C220.026 293.739 218.595 294.892 216.248 296.66C211.512 300.228 207.359 302.934 202.676 306.201C200.958 301.128 203.144 299.157 202.112 294.036C197.652 296.572 197.287 305.777 186.509 308.392C184.664 304.653 183.472 304.054 183.345 299.167C183.253 295.447 183.267 297.502 183.048 294.878C179.572 299.907 179.86 301.421 176.578 308.874C174.909 306.586 174.709 306.386 173.142 303.494C172.158 301.688 171.301 299.945 170.43 298.096C167.719 301.411 167.928 310.003 166.029 312.851C160.416 310.164 161.945 310.996 157.486 305.812C156.298 304.434 155.636 303.879 155.135 303.09C154.633 302.302 154.297 301.27 154.156 300.277C153.83 297.906 154.137 297.599 154.57 295.613C153.791 295.014 152.944 294.225 152.272 293.826C151.216 298.461 153.231 301.445 153.557 305.724C150.929 302.876 148.928 301.825 147.828 297.049C146.723 292.259 148.568 284.494 149.984 279.845C150.262 278.945 150.067 278.19 149.249 277.392C148.835 277.942 148.251 279.733 147.837 280.863C147.424 281.992 147.146 283.151 146.65 284.864C146.148 286.573 145.428 288.837 144.878 289.109C144.327 289.387 143.943 287.678 143.782 285.137C143.617 282.601 143.675 279.237 143.699 277.226C143.772 272.051 141.446 263.518 140.136 258.328C139.586 256.147 139.971 253.265 139.863 252.053C139.751 250.836 140.087 249.712 140.365 248.407C141.864 241.348 139.888 240.326 145.739 234.806C148.533 232.167 151.182 229.534 154.01 226.919C155.646 227.961 158.771 230.201 162.052 230.57C163.41 230.726 164.9 230.561 166.112 230.283C167.324 230.006 168.259 229.621 169.116 229.183C169.972 228.74 170.742 228.244 171.516 227.611C172.285 226.978 173.059 226.204 173.687 225.532C174.315 224.865 174.797 224.296 174.578 224.213C174.359 224.13 173.434 224.534 172.338 224.948C171.243 225.362 169.972 225.78 168.619 226.097C167.261 226.413 165.815 226.618 164.501 226.491C163.182 226.36 161.999 225.887 161.01 225.269C160.022 224.651 159.238 223.887 158.528 222.884C157.817 221.886 157.184 220.654 156.868 219.408C156.551 218.157 156.551 216.891 156.649 215.465C156.746 214.039 156.936 212.461 157.169 210.568C157.403 208.674 157.676 206.469 158.06 204.317C159.345 197.156 160.275 188.126 163.157 181.603C163.741 180.283 164.072 179.952 164.652 178.74C165.338 177.294 167.597 172.441 167.787 171.049C168.147 168.42 167.173 164.564 166.195 162.145C165.09 159.433 164.759 158.207 165.041 155.237C164.647 155.388 164.306 155.495 163.892 155.811C162.602 157.807 163.386 159.531 158.469 158.932C156.795 158.727 155.139 158.508 153.377 157.54C151.61 156.576 149.736 154.867 148.139 153.82C138.457 147.477 128.263 158.654 124.519 168.405C124.081 165.776 124.427 157.457 125.727 155.052C127.245 152.248 130.95 149.877 133.72 148.417C136.938 146.723 142.142 145.024 145.72 144.547C149.882 143.987 155.933 144.785 160.115 145.588C163.639 146.27 165.849 147.263 169.666 146.986C174.811 146.611 181.753 142.312 186.48 139.844C188.33 138.88 190.92 137.503 193.154 136.539C195.384 135.575 197.258 135.02 198.83 134.665C201.956 133.949 203.187 134.65 205.436 134.377C206.342 133.477 206.819 133.301 207.174 131.972C206.503 131.573 204.774 131.32 202.817 131.374C188.018 131.792 179.942 139.586 167.582 141.154C161.268 141.952 155.422 141.022 149.264 141.441C139.45 142.108 134.971 145.228 126.569 149.132ZM235.93 129.743C235.161 129.699 233.89 129.397 231.797 128.239C229.704 127.085 226.778 125.07 224.587 123.818C222.397 122.562 220.936 122.066 219.349 121.613C215.752 120.576 214.053 120.61 210.46 120.27C210.095 119.544 208.07 117.894 207.471 117.305C212.013 116.667 217.991 118.079 220.342 118.814C222.645 119.53 224.247 120.304 225.473 121.073C226.695 121.847 227.552 122.616 228.901 123.624C230.254 124.631 232.099 125.868 233.559 126.598C235.025 127.328 236.096 127.552 236.651 127.922C237.201 128.297 237.225 128.818 237.103 129.193C236.977 129.563 236.704 129.782 235.93 129.743ZM145.087 137.395C150.456 134.436 152.131 133.185 161.784 132.347C170.781 131.564 179.933 125.347 189.318 122.908C195.944 121.185 201.941 121.282 208.732 121.01C208.761 120.309 204.872 117.733 204.176 117.626C198.115 116.687 188.116 118.736 182.897 119.973C177.362 121.277 173.857 123.974 168.687 125.513C166.745 126.092 164.54 126.559 162.997 126.876C156.668 128.175 150.262 129.353 144.668 133.228C144.668 133.243 143.865 133.842 145.087 137.395ZM97.6621 124.753C90.7202 128.487 84.3965 132.927 79.5187 137.225C61.794 152.847 58.5762 165.144 70.8146 185.502C78.2141 197.818 86.816 206.177 99.0787 213.761C97.1412 211.113 93.3489 205.271 90.1068 199.751C86.8646 194.225 83.9974 188.165 82.1426 182.664C80.2879 177.163 79.4506 172.231 79.9033 167.281C80.356 162.335 82.1085 157.374 85.2387 151.737C95.744 132.81 106.118 129.125 120.25 115.207C113.668 117.432 105.724 120.416 97.6621 124.753ZM288.812 52.0776C292.59 48.0906 305.033 49.1665 310.645 49.5413C313.537 49.736 316.02 50.1742 318.61 51.0309C352.36 62.1594 363.206 104.005 354 135.073C353.119 138.053 350.895 142.478 349.906 144.41C348.427 143.826 347.453 143.743 346.216 144.128C345.915 141.071 346.406 134.012 345.9 129.811C343.67 111.273 319.096 89.4498 311.804 69.442C308.63 60.7476 296.552 59.1752 288.812 52.0776ZM129.173 237.512C114.394 232.138 43.6166 204.755 52.1699 156.118C55.8014 135.458 69.4905 129.178 87.7409 121.511C96.0118 118.04 106.814 114.287 118.059 110.65C129.309 107.014 140.993 103.484 152.793 99.3515C164.588 95.2136 176.496 90.4721 191.329 83.8028C206.157 77.1336 223.906 68.5317 237.746 62.3589C251.581 56.1813 261.507 52.4329 268.892 49.7896C280.575 45.603 291.266 42.6724 303.626 41.1877C325.235 38.5979 347.385 50.8557 357.52 69.9191C368.853 91.2315 362.671 129.451 352.574 150.16C336.709 182.683 323.629 190.341 301.868 206.96C304.069 212.593 305.519 216.619 310.027 217.694C309.618 218.225 307.856 219.559 306.678 220.124C304.166 221.326 303.499 221.277 300.909 220.844C301.464 223.916 301.328 224.743 300.948 227.635C297.579 226.705 295.7 225.274 292.731 224.369C291.738 229.066 291.869 233.788 290.998 238.54C289.075 237.503 285.638 235.896 284.056 233.73C282.761 234.621 280.804 238.676 279.782 240.901C278.764 243.125 278.404 244.143 277.917 248.354C277.43 252.56 276.817 259.954 276.52 264.272C276.218 268.59 276.233 269.832 277.143 270.761C278.049 271.696 279.845 272.324 281.476 274.578C288.7 284.572 286.816 303.898 303.626 315.397C305.315 316.555 307.374 317.602 309.083 319.038C310.791 320.469 312.116 322.344 313.109 324.442C314.097 326.535 314.759 328.847 315.869 329.573C316.974 330.298 318.527 329.431 321.944 330.366C325.362 331.306 330.643 334.046 335.658 336.227C340.672 338.408 345.413 340.024 349.546 341.68C353.679 343.335 357.209 345.024 360.305 346.46C363.401 347.896 367.003 349.322 368.605 349.819C372.509 349.318 376.71 348.675 382.425 347.92C400.155 325.756 421.589 301.518 427.27 293.948C432.722 286.68 443.515 271.964 448.816 264.569C454.117 257.179 453.923 257.111 458.45 260.499C462.977 263.888 472.222 270.732 476.934 274.067C481.651 277.406 481.831 277.231 480.785 278.497C479.733 279.762 477.46 282.474 466.531 295.15C455.602 307.822 436.018 330.454 425.921 341.942C415.83 353.431 415.221 353.777 416.117 354.366C417.013 354.95 419.413 355.777 421.238 356.746C423.064 357.715 424.315 358.83 424.938 359.38C425.566 359.93 425.561 359.915 430.171 356.074C434.781 352.229 444.006 344.561 448.553 340.443C453.105 336.325 452.973 335.755 454.263 333.365C455.553 330.979 458.255 326.773 461.595 322.903C464.929 319.038 468.902 315.509 472.65 313.138C476.433 310.743 500.213 297.526 505.432 298.996C503.188 305.5 498.393 309.458 495.306 312.198C495.944 312.344 497.555 312.038 498.315 313.727C494.381 315.64 489.435 334.11 477.927 343.364C474.563 346.071 470.966 348.797 468.761 350.121C466.555 351.44 465.908 351.557 455.773 362.53C445.637 373.502 426.009 395.335 413.717 408.567C401.42 421.798 396.46 426.428 362.997 456.912C329.534 487.401 266.166 544.844 236.816 571.969C207.466 599.089 206.946 599.824 206.103 599.99C204.93 600.218 201.858 596.665 202.258 595.998C201.07 596.879 196.406 595.141 196.231 591.86C196.177 590.813 196.922 589.494 200.437 584.811C205.685 577.815 211.054 570.981 216.278 564.462C4.95435 438.72 216.278 564.462 4.95435 438.72C9.31614 424.296 17.7525 401.932 29.7377 393.203C31.6071 391.845 33.5738 390.998 37.1031 390.058C40.6325 389.124 45.7196 388.097 49.58 387.464C53.4404 386.831 56.0789 386.602 60.2168 384.45C64.3498 382.299 69.9821 378.234 75.9407 374.437C81.8992 370.635 88.1839 367.11 93.5826 364.35C98.9862 361.595 103.509 359.609 106.926 358.455C110.343 357.296 112.661 356.965 115.581 356.25C120.868 354.95 123.307 353.757 127.791 352.16C131.12 346.533 131.933 344.396 137.205 340.088C144.133 334.416 152.452 321.725 156.118 313.498C152.754 311.682 149.716 310.388 147.438 307.15C142.813 300.578 140.209 293.899 140.238 285.828C140.253 281.622 140.72 276.399 140.496 272.928C140.141 267.29 136.402 257.705 135.302 250.16C134.796 246.708 133.725 240.905 129.173 237.512ZM233.647 36.0032C234.552 36.8648 236.529 38.7488 238.242 40.1946C239.951 41.6404 241.402 42.653 242.926 43.6947C249.444 48.1588 252.058 47.9105 260.129 45.6225C253.148 44.2692 240.555 39.5861 234.255 36.0616C232.902 35.3022 232.741 35.1415 233.647 36.0032ZM203.367 20.4691C201.474 24.4512 205.558 30.4098 212.953 37.8823C223.4 42.8574 231.52 45.603 242.22 46.1629C236.324 42.0493 222.864 28.3749 215.007 20.586C208.727 19.9969 204.565 17.9426 203.367 20.4691ZM141.46 58.0848C142.609 57.7148 144.542 56.7266 146.114 55.7968C155.923 49.994 159.433 39.9317 161.536 29.4946C161.814 28.1315 161.999 27.1189 162.076 26.3157C162.242 24.6849 161.999 23.5409 160.227 24.8894C159.17 25.6926 157.471 27.4159 156.108 29.0467C151.571 34.46 149.288 40.7836 144.483 46.8395C143.597 47.9543 142.794 49.2638 141.932 50.5246C141.071 51.7903 140.151 53.0074 139.683 53.9128C139.211 54.8183 139.187 55.4171 139.245 56.0402C139.386 57.5639 139.678 58.6544 141.46 58.0848ZM152.043 94.9994C163.897 90.1313 178.414 83.6081 188.52 78.6914C219.403 63.6733 230.682 53.1534 267.354 46.3479C263.698 40.5354 259.793 35.2681 255.388 29.9424C244.089 16.2923 233.861 16.7937 218.201 14.053C210.636 12.7289 207.69 8.48394 201.386 4.81828C191.061 -1.17919 175.381 -3.24813 168.4 8.58617C166.745 11.3902 164.267 15.7082 161.784 18.6485C156.614 24.7774 151.493 25.1474 145.106 28.5696C125.254 39.2112 130.273 84.1777 123.146 103.226C122.587 104.721 123.37 101.795 122.713 106.118C132.576 102.657 142.375 98.9718 152.043 94.9994ZM151.445 175.191C153.543 175.829 155.071 177.007 155.529 178.502C153.251 179.869 151.664 180.96 149.298 181.607C150.865 180.721 151.912 179.105 151.912 177.255C151.912 176.52 151.746 175.819 151.445 175.191ZM145.321 182.192C141.898 182.333 138.622 181.598 137.259 179.967C137.697 178.409 139.211 176.963 141.353 175.975C141.236 176.384 141.178 176.812 141.178 177.255C141.178 179.655 142.945 181.666 145.321 182.192ZM146.766 174.675C147.871 174.617 149.755 174.836 150.739 174.997C150.977 175.43 149.648 179.996 146.878 179.996C145.588 179.996 144.464 179.29 143.865 178.244C144.099 178.209 144.323 178.146 144.537 178.063C145.871 178.813 147.565 177.859 147.565 176.291C147.565 175.634 147.253 175.05 146.766 174.675Z" fill="#2B2A29"/>
</svg>
