<svg width="2160" height="3840" viewBox="0 0 2160 3840" fill="none" xmlns="http://www.w3.org/2000/svg">
<g clip-path="url(#clip0_2_227)">
<g clip-path="url(#clip1_2_227)">
<path opacity="0.2" d="M-1865.35 112.793C-1865.35 50.564 -1805.72 0.114814 -1732.15 0.114814H-1625.35V607.342C-1625.35 669.571 -1684.98 720.02 -1758.53 720.02H-1865.35V112.793ZM2139.03 360.079C2158.06 369.011 2173.2 379.414 2184.59 391.216C2204.22 411.561 2214.02 444.972 2214.02 491.265V536.777C2213.5 580.016 2204.43 614.943 2186.81 641.694C2168.74 669.272 2141.19 689.181 2104.24 701.535C2067.22 713.843 2019.94 719.974 1962.4 719.974H1334.6V113C1334.6 50.7018 1394.3 0.183702 1467.94 0.183702H1962.4C2019.94 0.183702 2067.22 6.33772 2104.24 18.6228C2141.19 30.9768 2168.76 50.8855 2186.81 78.4637C2204.43 105.215 2213.5 140.142 2214.02 183.381V228.893C2214.02 275.163 2204.2 308.573 2184.59 328.941C2173.2 340.744 2158.06 351.123 2139.03 360.079ZM1974.02 536.617V483.435C1974.02 448.417 1940.47 420.035 1899.09 420.035H1574.03V599.994H1899.09C1940.47 599.994 1974.02 571.612 1974.02 536.594V536.617ZM1574.03 300.077H1899.09C1940.47 300.077 1974.02 259.089 1974.02 224.071V183.404C1974.02 148.385 1940.47 120.003 1899.09 120.003H1574.03V300.077ZM1041.22 0.114814H544.403C484.08 0.114814 431.334 34.4212 415.742 83.6763L214.612 719.974H350.252C410.576 719.974 463.413 685.668 478.913 636.413L528.375 480.013H641.443C714.947 480.013 774.604 429.541 774.604 367.358V360.079H566.286L624.29 176.538C634.784 143.265 670.445 120.118 711.135 120.118H934.517V607.319C934.517 669.571 994.174 720.043 1067.75 720.043H1174.62V112.977C1174.62 50.6558 1114.89 0.137776 1041.22 0.137776V0.114814ZM-345.358 0.114814H-452.181C-525.731 0.114814 -585.365 50.564 -585.365 112.793V720.02H-18.5522C54.9975 720.02 114.632 669.571 114.632 607.342V540.038H-345.358V0.114814ZM-1465.34 180.097H-1225.34V720.02H-1118.54C-1044.99 720.02 -985.353 669.571 -985.353 607.342V180.097H-878.553C-805.004 180.097 -745.369 129.648 -745.369 67.4186V0.114814H-1332.18C-1405.73 0.114814 -1465.37 50.564 -1465.37 112.793V180.097H-1465.34ZM3254.01 539.854V479.99C3254.01 437.28 3249.07 411.286 3238.81 386.165C3228.54 361.066 3213.25 342.489 3193.09 330.113C3172.99 317.827 3148.59 309.722 3119.81 305.91C3091.11 302.006 3053.43 300.054 3006.74 300.054H2670.29C2639.27 300.054 2614.1 278.768 2614.1 252.544V179.936C2614.1 146.824 2645.79 119.98 2684.99 119.98H2926.88C2948.9 119.98 2968.01 124.917 2983.99 134.814C2987.57 136.996 2990.81 139.614 2993.88 142.231L2994.85 143.127C3022.06 166.664 3059.28 179.913 3098.25 179.913H3254.03C3254.03 80.5533 3173.48 0 3074.12 0H2614.08L2553.99 0.0688882C2454.63 0.137776 2374.07 80.6911 2374.07 180.051V252.521C2374.24 294.268 2379.31 309.4 2389.51 333.97C2399.7 359 2414.97 377.737 2435.13 390.022C2455.2 402.307 2479.63 410.413 2508.41 414.225C2537.11 418.198 2574.79 420.081 2621.48 420.081C2621.48 420.081 2823.5 420.012 2943.16 420.012C2982.36 420.012 3014.05 446.832 3014.05 479.967V539.992C3014.05 573.104 2982.36 599.948 2943.16 599.948H2701.2C2679.18 599.948 2660.08 595.011 2644.09 585.114C2640.49 583.024 2637.27 580.384 2634.2 577.697L2633.23 576.87C2606.02 553.333 2568.8 539.992 2529.83 539.992H2374.05C2374.05 639.352 2454.61 719.905 2553.96 719.905H3074.16C3173.52 719.836 3254.08 639.283 3254.08 539.831H3254.01V539.854Z" stroke="white" stroke-width="4" stroke-miterlimit="10"/>
<path opacity="0.2" d="M-1966 1872.75C-1966 1810.52 -1906.37 1760.07 -1832.82 1760.07H-1726.02V2367.3C-1726.02 2429.53 -1785.65 2479.98 -1859.2 2479.98H-1966V1872.75ZM2038.38 2120.04C2057.42 2128.97 2072.55 2139.37 2083.94 2151.17C2103.57 2171.52 2113.38 2204.93 2113.38 2251.22V2296.73C2112.85 2339.97 2103.78 2374.9 2086.17 2401.65C2068.1 2429.23 2040.54 2449.14 2003.59 2461.49C1966.58 2473.8 1919.3 2479.93 1861.75 2479.93H1233.95V1872.93C1233.95 1810.64 1293.65 1760.12 1367.3 1760.12H1861.75C1919.3 1760.12 1966.58 1766.27 2003.59 1778.56C2040.54 1790.91 2068.12 1810.82 2086.17 1838.4C2103.78 1865.15 2112.85 1900.08 2113.38 1943.31V1988.83C2113.38 2035.1 2103.55 2068.51 2083.94 2088.87C2072.55 2100.68 2057.42 2111.06 2038.38 2120.01V2120.04ZM1873.37 2296.57V2243.39C1873.37 2208.37 1839.82 2179.99 1798.44 2179.99H1473.38V2359.95H1798.44C1839.82 2359.95 1873.37 2331.57 1873.37 2296.55V2296.57ZM1473.38 2060.03H1798.44C1839.82 2060.03 1873.37 2019.05 1873.37 1984.03V1943.36C1873.37 1908.34 1839.82 1879.96 1798.44 1879.96H1473.38V2060.03ZM940.579 1760.07H443.757C383.434 1760.07 330.689 1794.38 315.097 1843.63L113.966 2479.93H249.607C309.93 2479.93 362.767 2445.62 378.267 2396.37L427.729 2239.97H540.798C614.302 2239.97 673.959 2189.5 673.959 2127.31V2120.04H465.64L523.644 1936.49C534.138 1903.22 569.8 1880.07 610.49 1880.07H833.871V2367.28C833.871 2429.53 893.528 2480 967.101 2480H1073.97V1872.91C1073.97 1810.59 1014.24 1760.07 940.579 1760.07ZM-446.004 1760.07H-552.826C-626.376 1760.07 -686.01 1810.52 -686.01 1872.75V2479.98H-119.198C-45.648 2479.98 13.9862 2429.53 13.9862 2367.3V2299.99H-446.004V1760.05V1760.07ZM-1566.01 1940.05H-1326.01V2479.98H-1219.21C-1145.66 2479.98 -1086.02 2429.53 -1086.02 2367.3V1940.05H-979.222C-905.672 1940.05 -846.038 1889.6 -846.038 1827.38V1760.07H-1432.83C-1506.38 1760.07 -1566.01 1810.52 -1566.01 1872.75V1940.05ZM3153.34 2299.81V2239.95C3153.34 2197.24 3148.4 2171.24 3138.14 2146.12C3127.87 2121.02 3112.58 2102.45 3092.42 2090.07C3072.33 2077.78 3047.92 2069.68 3019.14 2065.87C2990.44 2061.96 2952.76 2060.01 2906.08 2060.01H2569.63C2538.6 2060.01 2513.44 2038.72 2513.44 2012.5V1939.89C2513.44 1906.78 2545.12 1879.94 2584.32 1879.94H2826.21C2848.23 1879.94 2867.34 1884.87 2883.32 1894.77C2886.9 1896.95 2890.14 1899.57 2893.22 1902.19L2894.18 1903.08C2921.39 1926.62 2958.61 1939.87 2997.58 1939.87H3153.36C3153.36 1840.51 3072.81 1759.96 2973.45 1759.96H2513.41L2453.32 1760.03C2353.96 1760.09 2273.41 1840.65 2273.41 1940.01V2012.48C2273.57 2054.22 2278.64 2069.36 2288.84 2093.93C2299.03 2118.96 2314.3 2137.69 2334.46 2149.98C2354.53 2162.26 2378.97 2170.37 2407.74 2174.18C2436.44 2178.15 2474.12 2180.04 2520.81 2180.04C2520.81 2180.04 2722.83 2179.97 2842.49 2179.97C2881.69 2179.97 2913.38 2206.79 2913.38 2239.92V2299.95C2913.38 2333.06 2881.69 2359.9 2842.49 2359.9H2600.53C2578.51 2359.9 2559.41 2354.97 2543.43 2345.07C2539.82 2342.98 2536.61 2340.34 2533.53 2337.65L2532.56 2336.83C2505.35 2313.29 2468.13 2299.95 2429.16 2299.95H2273.38C2273.38 2399.31 2353.94 2479.86 2453.3 2479.86H2973.49C3072.85 2479.79 3153.41 2399.24 3153.41 2299.79H3153.34V2299.81Z" stroke="white" stroke-width="4" stroke-miterlimit="10"/>
<path opacity="0.2" d="M57.6846 992.817C57.6846 930.588 117.319 880.139 190.869 880.139H297.668V1487.37C297.668 1549.59 238.034 1600.04 164.484 1600.04H57.6846V992.817ZM4062.07 1240.1C4081.1 1249.04 4096.24 1259.44 4107.62 1271.24C4127.26 1291.59 4137.06 1325 4137.06 1371.29V1416.8C4136.54 1460.04 4127.46 1494.97 4109.85 1521.72C4091.78 1549.3 4064.23 1569.2 4027.28 1581.56C3990.26 1593.87 3942.98 1600 3885.44 1600H3257.64V993.024C3257.64 930.726 3317.34 880.208 3390.98 880.208H3885.44C3942.98 880.208 3990.26 886.362 4027.28 898.647C4064.23 911.001 4091.8 930.909 4109.85 958.488C4127.46 985.239 4136.54 1020.17 4137.06 1063.4V1108.92C4137.06 1155.19 4127.24 1188.6 4107.62 1208.97C4096.24 1220.77 4081.1 1231.15 4062.07 1240.1ZM3897.06 1416.64V1363.46C3897.06 1328.44 3863.51 1300.06 3822.13 1300.06H3497.07V1480.02H3822.13C3863.51 1480.02 3897.06 1451.64 3897.06 1416.62V1416.64ZM3497.07 1180.1H3822.13C3863.51 1180.1 3897.06 1139.11 3897.06 1104.09V1063.43C3897.06 1028.41 3863.51 1000.03 3822.13 1000.03H3497.07V1180.1ZM2964.26 880.139H2467.44C2407.12 880.139 2354.37 914.445 2338.78 963.7L2137.65 1600H2273.29C2333.61 1600 2386.45 1565.69 2401.95 1516.44L2451.41 1360.04H2564.48C2637.99 1360.04 2697.64 1309.57 2697.64 1247.38V1240.1H2489.33L2547.33 1056.56C2557.82 1023.29 2593.48 1000.14 2634.17 1000.14H2857.56V1487.34C2857.56 1549.59 2917.21 1600.07 2990.79 1600.07H3097.65V993.001C3097.65 930.68 3037.93 880.162 2964.26 880.162V880.139ZM1577.68 880.139H1470.86C1397.31 880.139 1337.67 930.588 1337.67 992.817V1600.04H1904.49C1978.04 1600.04 2037.67 1549.59 2037.67 1487.37V1420.06H1577.68V880.116V880.139ZM457.673 1060.12H697.679V1600.04H804.479C878.029 1600.04 937.663 1549.59 937.663 1487.37V1060.12H1044.46C1118.01 1060.12 1177.65 1009.67 1177.65 947.443V880.139H590.834C517.284 880.139 457.65 930.588 457.65 992.817V1060.12H457.673ZM5177.02 1419.88V1360.01C5177.02 1317.3 5172.09 1291.31 5161.82 1266.19C5151.56 1241.09 5136.26 1222.51 5116.1 1210.14C5096.01 1197.85 5071.6 1189.75 5042.83 1185.93C5014.13 1182.03 4976.44 1180.08 4929.76 1180.08H4593.31C4562.29 1180.08 4537.12 1158.79 4537.12 1132.57V1059.96C4537.12 1026.85 4568.81 1000 4608.01 1000H4849.9C4871.92 1000 4891.02 1004.94 4907 1014.84C4910.59 1017.02 4913.82 1019.64 4916.9 1022.26L4917.87 1023.15C4945.08 1046.69 4982.3 1059.94 5021.27 1059.94H5177.05C5177.05 960.577 5096.49 880.024 4997.13 880.024H4537.1L4477 880.093C4377.64 880.162 4297.09 960.715 4297.09 1060.07V1132.55C4297.25 1174.29 4302.33 1189.42 4312.52 1213.99C4322.72 1239.02 4337.99 1257.76 4358.15 1270.05C4378.22 1282.33 4402.65 1290.44 4431.42 1294.25C4460.13 1298.22 4497.81 1300.1 4544.49 1300.1C4544.49 1300.1 4746.52 1300.04 4866.18 1300.04C4905.37 1300.04 4937.06 1326.86 4937.06 1359.99V1420.02C4937.06 1453.13 4905.37 1479.97 4866.18 1479.97H4624.22C4602.2 1479.97 4583.09 1475.03 4567.11 1465.14C4563.5 1463.05 4560.29 1460.41 4557.21 1457.72L4556.25 1456.89C4529.04 1433.36 4491.81 1420.02 4452.85 1420.02H4297.07C4297.07 1519.38 4377.62 1599.93 4476.98 1599.93H4997.18C5096.54 1599.86 5177.09 1519.31 5177.09 1419.86H5177.02V1419.88Z" stroke="white" stroke-width="4" stroke-miterlimit="10"/>
</g>
<g clip-path="url(#clip2_2_227)">
<path opacity="0.2" d="M-1966 3636.75C-1966 3574.52 -1906.37 3524.07 -1832.82 3524.07H-1726.02V4131.3C-1726.02 4193.53 -1785.65 4243.98 -1859.2 4243.98H-1966V3636.75ZM2038.38 3884.04C2057.42 3892.97 2072.55 3903.37 2083.94 3915.17C2103.57 3935.52 2113.38 3968.93 2113.38 4015.22V4060.73C2112.85 4103.97 2103.78 4138.9 2086.17 4165.65C2068.1 4193.23 2040.54 4213.14 2003.59 4225.49C1966.58 4237.8 1919.3 4243.93 1861.75 4243.93H1233.95V3636.93C1233.95 3574.64 1293.65 3524.12 1367.3 3524.12H1861.75C1919.3 3524.12 1966.58 3530.27 2003.59 3542.56C2040.54 3554.91 2068.12 3574.82 2086.17 3602.4C2103.78 3629.15 2112.85 3664.08 2113.38 3707.31V3752.83C2113.38 3799.1 2103.55 3832.51 2083.94 3852.88C2072.55 3864.68 2057.42 3875.06 2038.38 3884.01V3884.04ZM1873.37 4060.57V4007.39C1873.37 3972.37 1839.82 3943.99 1798.44 3943.99H1473.38V4123.95H1798.44C1839.82 4123.95 1873.37 4095.57 1873.37 4060.55V4060.57ZM1473.38 3824.03H1798.44C1839.82 3824.03 1873.37 3783.05 1873.37 3748.03V3707.36C1873.37 3672.34 1839.82 3643.96 1798.44 3643.96H1473.38V3824.03ZM940.579 3524.07H443.757C383.434 3524.07 330.689 3558.38 315.097 3607.63L113.966 4243.93H249.607C309.93 4243.93 362.767 4209.62 378.267 4160.37L427.729 4003.97H540.798C614.302 4003.97 673.959 3953.5 673.959 3891.32V3884.04H465.64L523.644 3700.49C534.138 3667.22 569.8 3644.08 610.49 3644.08H833.871V4131.28C833.871 4193.53 893.528 4244 967.101 4244H1073.97V3636.91C1073.97 3574.59 1014.24 3524.07 940.579 3524.07ZM-446.004 3524.07H-552.826C-626.376 3524.07 -686.01 3574.52 -686.01 3636.75V4243.98H-119.198C-45.648 4243.98 13.9862 4193.53 13.9862 4131.3V4064H-446.004V3524.05V3524.07ZM-1566.01 3704.05H-1326.01V4243.98H-1219.21C-1145.66 4243.98 -1086.02 4193.53 -1086.02 4131.3V3704.05H-979.222C-905.672 3704.05 -846.038 3653.6 -846.038 3591.38V3524.07H-1432.83C-1506.38 3524.07 -1566.01 3574.52 -1566.01 3636.75V3704.05ZM3153.34 4063.81V4003.95C3153.34 3961.24 3148.4 3935.24 3138.14 3910.12C3127.87 3885.02 3112.58 3866.45 3092.42 3854.07C3072.33 3841.78 3047.92 3833.68 3019.14 3829.87C2990.44 3825.96 2952.76 3824.01 2906.08 3824.01H2569.63C2538.6 3824.01 2513.44 3802.72 2513.44 3776.5V3703.89C2513.44 3670.78 2545.12 3643.94 2584.32 3643.94H2826.21C2848.23 3643.94 2867.34 3648.87 2883.32 3658.77C2886.9 3660.95 2890.14 3663.57 2893.22 3666.19L2894.18 3667.08C2921.39 3690.62 2958.61 3703.87 2997.58 3703.87H3153.36C3153.36 3604.51 3072.81 3523.96 2973.45 3523.96H2513.41L2453.32 3524.03C2353.96 3524.09 2273.41 3604.65 2273.41 3704.01V3776.48C2273.57 3818.22 2278.64 3833.36 2288.84 3857.93C2299.03 3882.96 2314.3 3901.69 2334.46 3913.98C2354.53 3926.26 2378.97 3934.37 2407.74 3938.18C2436.44 3942.15 2474.12 3944.04 2520.81 3944.04C2520.81 3944.04 2722.83 3943.97 2842.49 3943.97C2881.69 3943.97 2913.38 3970.79 2913.38 4003.92V4063.95C2913.38 4097.06 2881.69 4123.9 2842.49 4123.9H2600.53C2578.51 4123.9 2559.41 4118.97 2543.43 4109.07C2539.82 4106.98 2536.61 4104.34 2533.53 4101.65L2532.56 4100.83C2505.35 4077.29 2468.13 4063.95 2429.16 4063.95H2273.38C2273.38 4163.31 2353.94 4243.86 2453.3 4243.86H2973.49C3072.85 4243.79 3153.41 4163.24 3153.41 4063.79H3153.34V4063.81Z" stroke="white" stroke-width="4" stroke-miterlimit="10"/>
<path opacity="0.2" d="M57.6846 2756.82C57.6846 2694.59 117.319 2644.14 190.869 2644.14H297.668V3251.37C297.668 3313.59 238.034 3364.04 164.484 3364.04H57.6846V2756.82ZM4062.07 3004.1C4081.1 3013.04 4096.24 3023.44 4107.62 3035.24C4127.26 3055.59 4137.06 3089 4137.06 3135.29V3180.8C4136.54 3224.04 4127.46 3258.97 4109.85 3285.72C4091.78 3313.3 4064.23 3333.2 4027.28 3345.56C3990.26 3357.87 3942.98 3364 3885.44 3364H3257.64V2757.02C3257.64 2694.73 3317.34 2644.21 3390.98 2644.21H3885.44C3942.98 2644.21 3990.26 2650.36 4027.28 2662.65C4064.23 2675 4091.8 2694.91 4109.85 2722.49C4127.46 2749.24 4136.54 2784.17 4137.06 2827.4V2872.92C4137.06 2919.19 4127.24 2952.6 4107.62 2972.97C4096.24 2984.77 4081.1 2995.15 4062.07 3004.1ZM3897.06 3180.64V3127.46C3897.06 3092.44 3863.51 3064.06 3822.13 3064.06H3497.07V3244.02H3822.13C3863.51 3244.02 3897.06 3215.64 3897.06 3180.62V3180.64ZM3497.07 2944.1H3822.13C3863.51 2944.1 3897.06 2903.11 3897.06 2868.09V2827.43C3897.06 2792.41 3863.51 2764.03 3822.13 2764.03H3497.07V2944.1ZM2964.26 2644.14H2467.44C2407.12 2644.14 2354.37 2678.45 2338.78 2727.7L2137.65 3364H2273.29C2333.61 3364 2386.45 3329.69 2401.95 3280.44L2451.41 3124.04H2564.48C2637.99 3124.04 2697.64 3073.57 2697.64 3011.38V3004.1H2489.33L2547.33 2820.56C2557.82 2787.29 2593.48 2764.14 2634.17 2764.14H2857.56V3251.34C2857.56 3313.59 2917.21 3364.07 2990.79 3364.07H3097.65V2757C3097.65 2694.68 3037.93 2644.16 2964.26 2644.16V2644.14ZM1577.68 2644.14H1470.86C1397.31 2644.14 1337.67 2694.59 1337.67 2756.82V3364.04H1904.49C1978.04 3364.04 2037.67 3313.59 2037.67 3251.37V3184.06H1577.68V2644.12V2644.14ZM457.673 2824.12H697.679V3364.04H804.479C878.029 3364.04 937.663 3313.59 937.663 3251.37V2824.12H1044.46C1118.01 2824.12 1177.65 2773.67 1177.65 2711.44V2644.14H590.834C517.284 2644.14 457.65 2694.59 457.65 2756.82V2824.12H457.673ZM5177.02 3183.88V3124.01C5177.02 3081.3 5172.09 3055.31 5161.82 3030.19C5151.56 3005.09 5136.26 2986.51 5116.1 2974.14C5096.01 2961.85 5071.6 2953.75 5042.83 2949.93C5014.13 2946.03 4976.44 2944.08 4929.76 2944.08H4593.31C4562.29 2944.08 4537.12 2922.79 4537.12 2896.57V2823.96C4537.12 2790.85 4568.81 2764 4608.01 2764H4849.9C4871.92 2764 4891.02 2768.94 4907 2778.84C4910.59 2781.02 4913.82 2783.64 4916.9 2786.26L4917.87 2787.15C4945.08 2810.69 4982.3 2823.94 5021.27 2823.94H5177.05C5177.05 2724.58 5096.49 2644.02 4997.13 2644.02H4537.1L4477 2644.09C4377.64 2644.16 4297.09 2724.72 4297.09 2824.07V2896.55C4297.25 2938.29 4302.33 2953.42 4312.52 2977.99C4322.72 3003.02 4337.99 3021.76 4358.15 3034.05C4378.22 3046.33 4402.65 3054.44 4431.42 3058.25C4460.13 3062.22 4497.81 3064.1 4544.49 3064.1C4544.49 3064.1 4746.52 3064.04 4866.18 3064.04C4905.37 3064.04 4937.06 3090.86 4937.06 3123.99V3184.02C4937.06 3217.13 4905.37 3243.97 4866.18 3243.97H4624.22C4602.2 3243.97 4583.09 3239.03 4567.11 3229.14C4563.5 3227.05 4560.29 3224.41 4557.21 3221.72L4556.25 3220.89C4529.04 3197.36 4491.81 3184.02 4452.85 3184.02H4297.07C4297.07 3283.38 4377.62 3363.93 4476.98 3363.93H4997.18C5096.54 3363.86 5177.09 3283.31 5177.09 3183.86H5177.02V3183.88Z" stroke="white" stroke-width="4" stroke-miterlimit="10"/>
</g>
</g>
<defs>
<clipPath id="clip0_2_227">
<rect width="2160" height="3840" fill="white"/>
</clipPath>
<clipPath id="clip1_2_227">
<rect width="2160" height="2480" fill="white"/>
</clipPath>
<clipPath id="clip2_2_227">
<rect width="2160" height="1605" fill="white" transform="translate(0 2639)"/>
</clipPath>
</defs>
</svg>
