<svg width="157" height="157" viewBox="0 0 157 157" fill="none" xmlns="http://www.w3.org/2000/svg">
<path d="M78.5 156.5C121.578 156.5 156.5 121.578 156.5 78.5C156.5 35.4218 121.578 0.5 78.5 0.5C35.4218 0.5 0.5 35.4218 0.5 78.5C0.5 121.578 35.4218 156.5 78.5 156.5Z" fill="#FF2147"/>
<path d="M78.5007 94.1C75.676 94.0999 72.961 93.0067 70.9242 91.0495C68.8875 89.0923 67.6872 86.4229 67.5746 83.6005L66.1334 47.2086C66.0756 45.7376 66.3154 44.27 66.8384 42.8939C67.3614 41.5178 68.1569 40.2615 69.1772 39.2003C70.1975 38.139 71.4215 37.2947 72.776 36.7179C74.1304 36.1412 75.5874 35.8438 77.0595 35.8438H79.9419C81.414 35.8438 82.871 36.1412 84.2254 36.7179C85.5799 37.2947 86.804 38.139 87.8242 39.2003C88.8445 40.2615 89.64 41.5178 90.163 42.8939C90.686 44.27 90.9258 45.7376 90.868 47.2086L89.4268 83.6005C89.3142 86.4229 88.1139 89.0923 86.0772 91.0495C84.0405 93.0067 81.3254 94.0999 78.5007 94.1Z" fill="white"/>
<path d="M89.4179 110.239C89.4179 104.21 84.5302 99.3224 78.5009 99.3224C72.4717 99.3224 67.584 104.21 67.584 110.239C67.584 116.269 72.4717 121.156 78.5009 121.156C84.5302 121.156 89.4179 116.269 89.4179 110.239Z" fill="white"/>
</svg>
