<svg width="129" height="129" viewBox="0 0 129 129" fill="none" xmlns="http://www.w3.org/2000/svg">
<path d="M27.3998 65.58C31.2698 86.68 48.6598 102.58 69.5298 102.58C93.2498 102.58 111.13 82 112.48 56.7C113.48 37.86 103.03 19.2 79.9098 8.81997C69.761 4.30122 58.4352 3.13816 47.5798 5.49997C69.8098 -0.520031 89.1098 5.51997 102.18 16.16C110.38 22.62 118.3 31.49 121.5 40.56C123.751 46.9485 125.022 53.641 125.27 60.41C125.27 94.81 98.3998 122.71 64.0098 122.71C49.2519 122.716 34.9716 117.48 23.7151 107.936C12.4586 98.3918 4.95771 85.1601 2.5498 70.6C3.1198 54.78 22.3798 52.37 27.3798 65.58H27.3998Z" fill="#4663AF"/>
</svg>
