<svg width="737" height="406" viewBox="0 0 737 406" fill="none" xmlns="http://www.w3.org/2000/svg">
<path d="M7.35662 13.9807H15.845V37.6682L21.4302 33.9397L38.8622 13.9807H48.3102L28.1348 37.1391L50.1063 62.4017H40.117L22.0207 41.9873L15.845 45.9373V62.4017H7.35662V13.9807ZM77.5522 42.5042L89.5467 13.9807H98.638L82.104 49.8135C76.8879 61.1343 71.229 63.5092 65.2748 63.5092C61.0306 63.5092 59.4682 62.4017 59.4682 62.4017V56.2122C59.4682 56.2122 61.3258 56.7413 64.1552 56.7413C67.5014 56.7413 70.1833 55.1785 73.1727 50.5518L51.5703 13.9807H61.0305L77.4784 42.5042H77.5522ZM114.618 20.3794V40.1908H119.908C126.17 40.1908 131.534 37.8897 131.534 30.0636C131.534 23.2096 126.834 20.3794 119.982 20.3794H114.618ZM106.659 13.9807H121.471C133.244 13.9807 140.244 19.1242 140.244 29.7683C140.244 41.9873 130.488 46.3803 121.631 46.3803H114.618V62.4017H106.659V13.9807ZM158.623 20.687V62.4017H150.122V13.9807H178.946V20.687H158.623ZM191.063 45.3344H208.938L200.081 20.3055L191.063 45.3344ZM205.814 13.9807L224.131 62.4017H215.421L211.03 50.9948H188.984L184.74 62.4017H176.178L194.422 13.9807H205.814ZM274.164 62.4017H265.675V41.532H241.76V62.4017H233.272V13.9807H241.76V35.0595H265.675V13.9807H274.164V62.4017ZM325.23 25.9783C325.23 25.9783 317.553 20.0102 311.23 20.0102C299.986 20.0102 293.946 27.2334 293.946 38.4804C293.946 49.592 300.503 56.4337 310.849 56.4337C321.281 56.4337 327.235 49.1367 327.235 49.1367L330.593 54.2064C330.593 54.2064 325.23 63.583 310.479 63.583C294.093 63.583 285.31 53.7511 285.31 38.4804C285.31 23.2096 294.622 12.8609 310.639 12.8609C323.434 12.8609 328.428 20.5271 328.428 20.5271L325.23 25.9783ZM339.131 13.9807H347.619V37.6682L353.205 33.9397L370.637 13.9807H380.085L359.909 37.1391L381.881 62.4017H371.891L353.795 41.9873L347.619 45.9373V62.4017H339.131V13.9807ZM431.827 62.4017H423.782V29.9159L424.089 26.4212H423.929L398.612 61.4296L398.169 62.4017H390.271V13.9807H398.39V46.7495L398.009 49.9611H398.169L423.56 14.9405L424.003 13.9807H431.827V62.4017ZM475.807 0.198822L476.262 0.27265L481.909 1.24475C481.909 1.24475 480.433 9.66154 468.217 9.66154C456.074 9.66154 454.66 1.24475 454.66 1.24475L460.319 0.27265L460.688 0.198822C460.688 0.198822 462.189 4.66562 468.217 4.66562C474.405 4.66562 475.807 0.198822 475.807 0.198822ZM488.392 62.4017H480.346V29.9159L480.654 26.4212H480.506L455.176 61.4296L454.734 62.4017H446.836V13.9807H454.955V46.7495L454.586 49.9611H454.734L480.137 14.9528L480.58 13.9807H488.392V62.4017ZM28.2824 109.358C17.9979 109.358 12.0437 116.668 12.0437 127.607C12.0437 138.633 17.8503 145.794 28.2824 145.794C38.7761 145.794 44.6565 138.633 44.6565 127.607C44.6565 116.668 38.6408 109.358 28.2824 109.358ZM28.2824 152.944C12.4251 152.944 3.40763 142.964 3.40763 127.607C3.40763 112.349 12.4251 102.209 28.2824 102.209C44.2136 102.209 53.3786 112.349 53.3786 127.607C53.3786 142.964 44.2136 152.944 28.2824 152.944ZM72.9389 128.432V145.413H79.6313C88.2058 145.413 92.0809 142.656 92.0809 136.701C92.0809 130.819 87.6768 128.432 79.496 128.432H72.9389ZM94.3076 110.035H72.9389V122.476H79.6313C93.0405 122.476 100.188 126.943 100.188 136.479C100.188 146.016 94.16 151.75 80.0126 151.75H64.4382V103.329H94.3076V110.035ZM149.925 103.329V151.75H141.437V110.035H126.022C125.949 139.678 120.437 152.784 110.534 152.784C107.176 152.784 105.613 151.75 105.613 151.75L106.056 144.822C106.056 144.822 106.88 145.265 108.516 145.265C115.664 145.265 118.124 134.24 118.124 103.329H149.925ZM174.099 134.683H191.974L183.104 109.666L174.099 134.683ZM188.837 103.329L207.167 151.75H198.457L194.065 140.355H172.02L167.776 151.75H159.213L177.457 103.329H188.837ZM250.04 115.326C250.04 115.326 242.375 109.358 236.04 109.358C224.796 109.358 218.768 116.594 218.768 127.841C218.768 138.94 225.312 145.794 235.671 145.794C246.09 145.794 252.045 138.485 252.045 138.485L255.403 143.555C255.403 143.555 250.039 152.944 235.289 152.944C218.915 152.944 210.119 143.112 210.119 127.841C210.119 112.57 219.444 102.209 235.449 102.209C248.256 102.209 253.238 109.888 253.238 109.888L250.04 115.326ZM293.589 110.035H279.589V151.75H271.027V110.035H257.027V103.329H293.589V110.035ZM342.576 151.75H334.075V130.893H310.184V151.75H301.684V103.329H310.184V124.408H334.075V103.329H342.576V151.75ZM378.584 109.358C368.312 109.358 362.357 116.668 362.357 127.607C362.357 138.633 368.164 145.794 378.584 145.794C389.09 145.794 394.97 138.633 394.97 127.607C394.97 116.668 388.942 109.358 378.584 109.358ZM378.584 152.944C362.726 152.944 353.721 142.964 353.721 127.607C353.721 112.349 362.726 102.209 378.584 102.209C394.527 102.209 403.68 112.349 403.68 127.607C403.68 142.964 394.527 152.944 378.584 152.944ZM443.735 89.547L444.178 89.6208L449.837 90.5929C449.837 90.5929 448.349 99.0097 436.133 99.0097C423.991 99.0097 422.576 90.5929 422.576 90.5929L428.235 89.6208L428.604 89.547C428.604 89.547 430.092 94.0138 436.133 94.0138C442.308 94.0138 443.735 89.547 443.735 89.547ZM456.308 151.75H448.275V119.264L448.57 115.769H448.423L423.105 150.778L422.662 151.75H414.764V103.329H422.871V136.11L422.502 139.309H422.662L448.041 104.301L448.496 103.329H456.308V151.75ZM20.0892 216.881L1.32858 192.677H11.0719L25.3053 211.147L39.6742 192.677H49.3559L30.5091 216.82L49.7373 241.098H39.6742L25.3053 222.616L10.9981 241.098H0.959534L20.0892 216.881ZM77.4169 221.213L89.3991 192.677H98.478L81.9564 228.51C76.7403 239.831 71.0814 242.218 65.1272 242.218C60.8829 242.218 59.3205 241.098 59.3205 241.098V234.921C59.3205 234.921 61.1781 235.438 64.0076 235.438C67.3661 235.438 70.0356 233.875 73.0127 229.248L51.4226 192.677H60.8829L77.3431 221.213H77.4169ZM118.272 199.383C117.977 217.927 116.119 227.316 112.908 234.392H134.068V199.383H118.272ZM142.323 192.677V234.392H148.363L147.539 252.862H141.142L140.76 241.098H107.102L106.733 252.862H100.852L100.028 234.392H104.875C108.664 226.799 110.682 216.291 110.682 192.677H142.323ZM180.434 198.707C170.15 198.707 164.196 206.004 164.196 216.968C164.196 227.993 170.002 235.142 180.434 235.142C190.928 235.142 196.808 227.993 196.808 216.968C196.808 206.004 190.793 198.707 180.434 198.707ZM180.434 242.292C164.577 242.292 155.56 232.312 155.56 216.968C155.56 201.697 164.577 191.557 180.434 191.557C196.366 191.557 205.531 201.697 205.531 216.968C205.531 232.312 196.366 242.292 180.434 242.292ZM248.477 212.267H253.619L269.92 192.677H279.835L260.459 214.802L281.767 241.098H271.79L254.357 219.047H248.477V241.098H240.505V219.047H234.773L219.211 241.098H209.307L228.449 216.365L210.119 192.677H220.035L234.699 212.341H240.505V192.677H248.477V212.267ZM324.627 241.098H291.042V192.677H322.917V199.383H299.531V213.387H320.69V219.872H299.531V234.392H324.627V241.098ZM371.522 204.675C371.522 204.675 363.858 198.719 357.523 198.719C346.279 198.719 340.25 205.942 340.25 217.189C340.25 228.288 346.795 235.142 357.154 235.142C367.573 235.142 373.528 227.845 373.528 227.845L376.886 232.903C376.886 232.903 371.522 242.292 356.772 242.292C340.398 242.292 331.602 232.46 331.602 217.189C331.602 201.918 340.915 191.557 356.932 191.557C369.739 191.557 374.721 199.236 374.721 199.236L371.522 204.675ZM415.072 199.383H401.072V241.098H392.51V199.383H378.498V192.677H415.072V199.383ZM430.769 218.899V234.699H439.036C447.303 234.699 450.797 231.783 450.797 226.418C450.797 221.361 447.377 218.899 441.644 218.899H430.769ZM441.263 213.608C444.092 213.608 448.423 211.972 448.423 206.237C448.423 201.389 444.917 199.014 438.802 199.014H430.769V213.608H441.263ZM423.166 192.677H439.171C451.4 192.677 456.308 198.485 456.308 205.339C456.308 210.187 453.479 213.387 450.28 215.393C455.792 217.263 458.916 221.434 458.916 226.873C458.916 235.512 453.405 241.098 439.479 241.098H423.166V192.677ZM503.585 241.098H469.988V192.677H501.863V199.383H478.489V213.387H499.636V219.872H478.489V234.392H503.585V241.098ZM555.389 241.098H546.901V220.241H522.998V241.098H514.509V192.677H522.998V213.756H546.901V192.677H555.389V241.098ZM611.376 241.098H602.875V220.241H578.972V241.098H570.484V192.677H578.972V213.756H602.875V192.677H611.376V241.098ZM679.935 241.098H671.447V192.677H679.935V241.098ZM634.959 217.78V234.761H641.664C650.226 234.761 654.089 232.017 654.089 226.049C654.089 220.167 649.697 217.78 641.504 217.78H634.959ZM626.47 192.677H634.959V211.824H641.664C655.06 211.824 662.22 216.291 662.22 225.827C662.22 235.364 656.18 241.098 642.032 241.098H626.47V192.677ZM723.915 178.895L724.37 178.969L730.017 179.941C730.017 179.941 728.541 188.358 716.325 188.358C704.183 188.358 702.768 179.941 702.768 179.941L708.427 178.969L708.796 178.895C708.796 178.895 710.297 183.374 716.325 183.374C722.5 183.374 723.915 178.895 723.915 178.895ZM736.5 192.677V241.098H728.454V208.625L728.762 205.118H728.614L703.285 240.126L702.842 241.098H694.944V192.677H703.063V225.458L702.694 228.658H702.842L728.233 193.649L728.688 192.677H736.5ZM66.3327 330.446H58.2133V293.654H57.9919L41.0151 330.446H32.7481L15.6974 293.654H15.5498V330.446H7.35662V282.025L7.50424 282.259L7.43043 282.025H18.4531L36.7708 322.103H36.9184L55.3101 282.025H66.3327V330.446ZM100.483 310.561L112.478 282.025H121.557L105.023 317.858C99.819 329.179 94.16 331.566 88.1935 331.566C83.9493 331.566 82.3869 330.446 82.3869 330.446V324.269C82.3869 324.269 84.2568 324.786 87.074 324.786C90.4325 324.786 93.1143 323.223 96.0914 318.609L74.489 282.025H83.9493L100.409 310.561H100.483ZM125.641 287.39C125.641 287.39 130.328 280.918 142.163 280.918C154.01 280.918 159.447 286.283 159.447 294.097C159.447 299.314 156.396 302.883 152.816 305.122C157.811 307.066 160.936 310.856 160.936 316.738C160.936 325.61 154.083 331.64 140.686 331.64C126.084 331.64 123.094 323.149 123.094 323.149L127.499 318.375C127.499 318.375 131.152 324.712 140.157 324.712C147.982 324.712 152.066 321.66 152.066 316.369C152.066 311.226 148.203 308.851 141.88 308.851H133.453V302.883H142.323C145.89 302.809 151.106 300.212 151.106 295.069C151.106 290.528 147.908 287.39 140.969 287.39C132.715 287.39 128.618 292.312 128.618 292.312L125.641 287.39ZM205.604 330.446H172.007V282.025H203.894V288.732H180.496V302.735H201.655V309.22H180.496V323.74H205.604V330.446ZM245.488 268.256L245.943 268.317L251.602 269.289C251.602 269.289 250.113 277.706 237.91 277.706C225.767 277.706 224.34 269.289 224.34 269.289L229.999 268.317L230.381 268.256C230.381 268.256 231.869 272.723 237.91 272.723C244.085 272.723 245.488 268.256 245.488 268.256ZM258.073 330.446H250.04V297.973L250.335 294.478H250.187L224.869 329.474L224.414 330.446H216.516V282.025H224.648V314.806L224.279 318.006H224.414L249.818 282.997L250.261 282.025H258.073V330.446ZM36.5987 404.905H30.5706V380.578L30.8044 377.944H30.6936L11.7238 404.179L11.3794 404.905H5.47437V368.629H11.5516V393.191L11.281 395.59H11.3794L30.4107 369.355L30.7552 368.629H36.5987V404.905ZM92.0933 404.905H86.016V377.329H85.8438L73.1235 404.905H66.9232L54.1537 377.329H54.043V404.905H47.8919V368.629L48.0149 368.789L47.9658 368.629H56.2082L69.9372 398.654H70.048L83.8385 368.629H92.0933V404.905ZM109.033 404.905H103.337V399.442H109.033V404.905ZM142.409 373.65V404.905H136.049V368.629H157.651V373.65H142.409ZM164.971 404.905H159.287V399.442H164.971V404.905ZM183.005 392.132H196.39L189.747 373.367L183.005 392.132ZM194.053 368.629L207.782 404.905H201.249L197.953 396.365H181.443L178.257 404.905H171.835L185.503 368.629H194.053ZM220.244 404.905H214.548V399.442H220.244V404.905ZM269.477 373.65H258.983V404.905H252.574V373.65H242.068V368.629H269.477V373.65ZM281.545 373.428V388.269H285.494C290.193 388.269 294.204 386.546 294.204 380.689C294.204 375.545 290.698 373.428 285.568 373.428H281.545ZM275.566 368.629H286.675C295.496 368.629 300.736 372.481 300.736 380.455C300.736 389.61 293.429 392.908 286.786 392.908H281.545V404.905H275.566V368.629ZM312.755 392.132H326.14L319.509 373.367L312.755 392.132ZM323.79 368.629L337.519 404.905H330.999L327.702 396.365H311.193L308.007 404.905H301.585L315.265 368.629H323.79ZM350.092 388.269V400.106H356.292C362.493 400.106 365.113 397.928 365.113 393.917C365.113 390.114 362.542 388.269 358.248 388.269H350.092ZM357.966 384.306C360.081 384.306 363.329 383.088 363.329 378.793C363.329 375.151 360.709 373.367 356.12 373.367H350.092V384.306H357.966ZM344.409 368.629H356.403C365.556 368.629 369.246 372.985 369.246 378.117C369.246 381.747 367.118 384.146 364.719 385.647C368.853 387.05 371.19 390.176 371.19 394.249C371.19 400.721 367.069 404.905 356.637 404.905H344.409V368.629ZM410.163 404.905H403.803V389.278H385.879V404.905H379.519V368.629H385.879V384.417H403.803V368.629H410.163V404.905ZM452.642 404.905H446.614V380.578L446.836 377.944H446.725L427.755 404.179L427.423 404.905H421.506V368.629H427.595V393.191L427.312 395.59H427.423L446.442 369.355L446.786 368.629H452.642V404.905ZM463.936 368.629H470.296V386.374L474.491 383.593L487.531 368.629H494.629L479.51 385.992L495.97 404.905H488.49L474.934 389.61L470.296 392.575V404.905H463.936V368.629ZM516.847 373.145C509.158 373.145 504.692 378.621 504.692 386.816C504.692 395.086 509.047 400.438 516.847 400.438C524.72 400.438 529.124 395.086 529.124 386.816C529.124 378.621 524.609 373.145 516.847 373.145ZM516.847 405.803C504.975 405.803 498.221 398.322 498.221 386.816C498.221 375.385 504.975 367.793 516.847 367.793C528.804 367.793 535.657 375.385 535.657 386.816C535.657 398.322 528.804 405.803 516.847 405.803ZM549.693 388.269V400.106H555.881C562.081 400.106 564.702 397.928 564.702 393.917C564.702 390.114 562.131 388.269 557.837 388.269H549.693ZM557.567 384.306C559.682 384.306 562.918 383.088 562.918 378.793C562.918 375.151 560.298 373.367 555.721 373.367H549.693V384.306H557.567ZM543.997 368.629H555.992C565.145 368.629 568.823 372.985 568.823 378.117C568.823 381.747 566.707 384.146 564.308 385.647C568.442 387.05 570.779 390.176 570.779 394.249C570.779 400.721 566.658 404.905 556.213 404.905H543.997V368.629ZM585.923 392.132H599.32L592.677 373.367L585.923 392.132ZM596.97 368.629L610.699 404.905H604.167L600.882 396.365H584.36L581.174 404.905H574.765L588.432 368.629H596.97Z" fill="#231F20"/>
</svg>
