<svg width="64" height="64" viewBox="0 0 64 64" fill="none" xmlns="http://www.w3.org/2000/svg">
<rect width="64" height="64" rx="32" fill="white"/>
<path d="M43.84 21.9251C44.0106 21.751 44.2142 21.6127 44.4389 21.5183C44.6636 21.4239 44.9049 21.3752 45.1487 21.3752C45.3925 21.3752 45.6338 21.4239 45.8585 21.5183C46.0832 21.6127 46.2868 21.751 46.4575 21.9251C47.1725 22.6476 47.1825 23.8151 46.4825 24.5501L31.7 42.0251C31.5321 42.2094 31.3284 42.3575 31.1014 42.4604C30.8743 42.5633 30.6287 42.6187 30.3795 42.6234C30.1302 42.6281 29.8827 42.5819 29.6519 42.4876C29.4212 42.3933 29.2121 42.253 29.0375 42.0751L20.0425 32.9601C19.6955 32.6063 19.5012 32.1306 19.5012 31.6351C19.5012 31.1396 19.6955 30.6639 20.0425 30.3101C20.2131 30.136 20.4167 29.9977 20.6414 29.9033C20.8661 29.8089 21.1074 29.7602 21.3512 29.7602C21.595 29.7602 21.8363 29.8089 22.061 29.9033C22.2857 29.9977 22.4893 30.136 22.66 30.3101L30.29 38.0426L43.79 21.9801C43.8055 21.9608 43.8222 21.9424 43.84 21.9251Z" fill="#4663AF"/>
</svg>
