<svg width="48" height="48" viewBox="0 0 48 48" fill="none" xmlns="http://www.w3.org/2000/svg">
<g clip-path="url(#clip0_24_4928)">
<path d="M26.4844 0.12778C25.6594 0.0446302 24.8308 0.00328967 24.0018 0.00366464H23.9769C22.6048 0.0263504 21.5077 1.15126 21.5195 2.52366V12.4165C21.5162 12.7497 21.5839 13.0797 21.7179 13.3847C21.9269 13.8821 22.2929 14.2976 22.7599 14.5678C23.227 14.838 23.7695 14.9481 24.3049 14.8813C25.5756 14.6908 26.5079 13.5883 26.4845 12.304V5.1342C35.7548 6.35098 42.7701 14.1185 43.0389 23.4646C43.3076 32.8106 36.7508 40.9688 27.5659 42.7162C18.381 44.464 9.28606 39.284 6.10387 30.4923C2.92178 21.7007 6.59387 11.8994 14.7696 7.36321C15.8564 6.74761 16.3112 5.41618 15.8279 4.26455L15.8249 4.25752C15.6909 3.93369 15.49 3.64183 15.2353 3.40109C14.9807 3.16034 14.678 2.97614 14.3471 2.86056C14.0163 2.74498 13.6648 2.70063 13.3156 2.73042C12.9664 2.76021 12.6275 2.86347 12.321 3.03343C1.97657 8.7971 -2.6172 21.2448 1.50261 32.3463C5.62222 43.4482 17.2243 49.8854 28.8242 47.5055C40.4243 45.1258 48.5546 34.6405 47.9702 22.8131C47.3862 10.9862 38.2623 1.353 26.4844 0.12778Z" fill="#B2AFAE"/>
<path d="M14.9332 16.0271C15.9318 18.6566 19.1989 24.8652 21.6428 27.5087C23.1452 29.2048 25.7108 29.4318 27.4878 28.0264C27.9275 27.6575 28.2857 27.2012 28.5397 26.6866C28.7937 26.1719 28.9379 25.61 28.9632 25.0366C28.9882 24.4633 28.8938 23.891 28.686 23.356C28.4781 22.8211 28.1614 22.3352 27.7558 21.9291C25.1999 19.3735 18.713 15.9874 15.9929 14.9549C15.8437 14.8988 15.6814 14.8871 15.5257 14.9212C15.3699 14.9553 15.2274 15.0337 15.1152 15.147C15.0032 15.2605 14.9263 15.4039 14.8941 15.5601C14.8618 15.7163 14.8754 15.8784 14.9333 16.027L14.9332 16.0271Z" fill="#B2AFAE"/>
</g>
<defs>
<clipPath id="clip0_24_4928">
<rect width="48" height="48" fill="white"/>
</clipPath>
</defs>
</svg>
